M48
; DRILL file {KiCad (5.1.12)-1} date 12/02/21 19:00:56
; FORMAT={-:-/ absolute / metric / decimal}
; #@! TF.CreationDate,2021-12-02T19:00:56+01:00
; #@! TF.GenerationSoftware,Kicad,Pcbnew,(5.1.12)-1
; #@! TF.FileFunction,NonPlated,1,2,NPTH
FMAT,2
METRIC
T1C0.500
%
G90
G05
T1
X100.25Y-65.25
X100.25Y-66.75
X100.25Y-126.75
X100.25Y-128.25
X101.0Y-65.25
X101.0Y-66.75
X101.0Y-126.75
X101.0Y-128.25
X101.75Y-65.25
X101.75Y-66.75
X101.75Y-126.75
X101.75Y-128.25
X110.25Y-65.25
X110.25Y-66.75
X110.25Y-126.75
X110.25Y-128.25
X111.0Y-65.25
X111.0Y-66.75
X111.0Y-126.75
X111.0Y-128.25
X111.75Y-65.25
X111.75Y-66.75
X111.75Y-126.75
X111.75Y-128.25
X120.25Y-65.25
X120.25Y-66.75
X120.25Y-126.75
X120.25Y-128.25
X121.0Y-65.25
X121.0Y-66.75
X121.0Y-126.75
X121.0Y-128.25
X121.75Y-65.25
X121.75Y-66.75
X121.75Y-126.75
X121.75Y-128.25
X130.25Y-65.25
X130.25Y-66.75
X130.25Y-126.75
X130.25Y-128.25
X131.0Y-65.25
X131.0Y-66.75
X131.0Y-126.75
X131.0Y-128.25
X131.75Y-65.25
X131.75Y-66.75
X131.75Y-126.75
X131.75Y-128.25
X140.25Y-65.25
X140.25Y-66.75
X140.25Y-126.75
X140.25Y-128.25
X141.0Y-65.25
X141.0Y-66.75
X141.0Y-126.75
X141.0Y-128.25
X141.75Y-65.25
X141.75Y-66.75
X141.75Y-126.75
X141.75Y-128.25
X150.25Y-65.25
X150.25Y-66.75
X150.25Y-126.75
X150.25Y-128.25
X151.0Y-65.25
X151.0Y-66.75
X151.0Y-126.75
X151.0Y-128.25
X151.75Y-65.25
X151.75Y-66.75
X151.75Y-126.75
X151.75Y-128.25
X160.25Y-65.25
X160.25Y-66.75
X160.25Y-126.75
X160.25Y-128.25
X161.0Y-65.25
X161.0Y-66.75
X161.0Y-126.75
X161.0Y-128.25
X161.75Y-65.25
X161.75Y-66.75
X161.75Y-126.75
X161.75Y-128.25
X170.25Y-65.25
X170.25Y-66.75
X170.25Y-126.75
X170.25Y-128.25
X171.0Y-65.25
X171.0Y-66.75
X171.0Y-126.75
X171.0Y-128.25
X171.75Y-65.25
X171.75Y-66.75
X171.75Y-126.75
X171.75Y-128.25
X180.25Y-65.25
X180.25Y-66.75
X180.25Y-126.75
X180.25Y-128.25
X181.0Y-65.25
X181.0Y-66.75
X181.0Y-126.75
X181.0Y-128.25
X181.75Y-65.25
X181.75Y-66.75
X181.75Y-126.75
X181.75Y-128.25
X190.25Y-65.25
X190.25Y-66.75
X190.25Y-126.75
X190.25Y-128.25
X191.0Y-65.25
X191.0Y-66.75
X191.0Y-126.75
X191.0Y-128.25
X191.75Y-65.25
X191.75Y-66.75
X191.75Y-126.75
X191.75Y-128.25
T0
M30
