M48
; DRILL file {KiCad (5.1.12)-1} date 12/02/21 19:00:55
; FORMAT={-:-/ absolute / metric / decimal}
; #@! TF.CreationDate,2021-12-02T19:00:55+01:00
; #@! TF.GenerationSoftware,Kicad,Pcbnew,(5.1.12)-1
; #@! TF.FileFunction,Plated,1,2,PTH
FMAT,2
METRIC
T1C0.400
%
G90
G05
T1
X98.5Y-76.05
X98.5Y-125.0
X99.0Y-118.0
X99.5Y-98.55
X99.5Y-107.0
X99.5Y-113.0
X100.5Y-118.0
X101.0Y-78.5
X101.0Y-83.75
X102.5Y-92.25
X102.5Y-97.15
X102.5Y-102.75
X103.4Y-107.0
X103.5Y-76.0
X104.0Y-97.75
X104.0Y-105.5
X104.0Y-111.5
X104.0Y-117.25
X104.36Y-77.37
X104.36Y-88.74
X108.5Y-76.05
X108.5Y-125.0
X109.0Y-118.0
X109.5Y-98.55
X109.5Y-107.0
X109.5Y-113.0
X110.5Y-118.0
X111.0Y-78.5
X111.0Y-83.75
X112.5Y-92.25
X112.5Y-97.15
X112.5Y-102.75
X113.4Y-107.0
X113.5Y-76.0
X114.0Y-97.75
X114.0Y-105.5
X114.0Y-111.5
X114.0Y-117.25
X114.36Y-77.37
X114.36Y-88.74
X118.5Y-76.05
X118.5Y-125.0
X119.0Y-118.0
X119.5Y-98.55
X119.5Y-107.0
X119.5Y-113.0
X120.5Y-118.0
X121.0Y-78.5
X121.0Y-83.75
X122.5Y-92.25
X122.5Y-97.15
X122.5Y-102.75
X123.4Y-107.0
X123.5Y-76.0
X124.0Y-97.75
X124.0Y-105.5
X124.0Y-111.5
X124.0Y-117.25
X124.36Y-77.37
X124.36Y-88.74
X128.5Y-76.05
X128.5Y-125.0
X129.0Y-118.0
X129.5Y-98.55
X129.5Y-107.0
X129.5Y-113.0
X130.5Y-118.0
X131.0Y-78.5
X131.0Y-83.75
X132.5Y-92.25
X132.5Y-97.15
X132.5Y-102.75
X133.4Y-107.0
X133.5Y-76.0
X134.0Y-97.75
X134.0Y-105.5
X134.0Y-111.5
X134.0Y-117.25
X134.36Y-77.37
X134.36Y-88.74
X138.5Y-76.05
X138.5Y-125.0
X139.0Y-118.0
X139.5Y-98.55
X139.5Y-107.0
X139.5Y-113.0
X140.5Y-118.0
X141.0Y-78.5
X141.0Y-83.75
X142.5Y-92.25
X142.5Y-97.15
X142.5Y-102.75
X143.4Y-107.0
X143.5Y-76.0
X144.0Y-97.75
X144.0Y-105.5
X144.0Y-111.5
X144.0Y-117.25
X144.36Y-77.37
X144.36Y-88.74
X148.5Y-76.05
X148.5Y-125.0
X149.0Y-118.0
X149.5Y-98.55
X149.5Y-107.0
X149.5Y-113.0
X150.5Y-118.0
X151.0Y-78.5
X151.0Y-83.75
X152.5Y-92.25
X152.5Y-97.15
X152.5Y-102.75
X153.4Y-107.0
X153.5Y-76.0
X154.0Y-97.75
X154.0Y-105.5
X154.0Y-111.5
X154.0Y-117.25
X154.36Y-77.37
X154.36Y-88.74
X158.5Y-76.05
X158.5Y-125.0
X159.0Y-118.0
X159.5Y-98.55
X159.5Y-107.0
X159.5Y-113.0
X160.5Y-118.0
X161.0Y-78.5
X161.0Y-83.75
X162.5Y-92.25
X162.5Y-97.15
X162.5Y-102.75
X163.4Y-107.0
X163.5Y-76.0
X164.0Y-97.75
X164.0Y-105.5
X164.0Y-111.5
X164.0Y-117.25
X164.36Y-77.37
X164.36Y-88.74
X168.5Y-76.05
X168.5Y-125.0
X169.0Y-118.0
X169.5Y-98.55
X169.5Y-107.0
X169.5Y-113.0
X170.5Y-118.0
X171.0Y-78.5
X171.0Y-83.75
X172.5Y-92.25
X172.5Y-97.15
X172.5Y-102.75
X173.4Y-107.0
X173.5Y-76.0
X174.0Y-97.75
X174.0Y-105.5
X174.0Y-111.5
X174.0Y-117.25
X174.36Y-77.37
X174.36Y-88.74
X178.5Y-76.05
X178.5Y-125.0
X179.0Y-118.0
X179.5Y-98.55
X179.5Y-107.0
X179.5Y-113.0
X180.5Y-118.0
X181.0Y-78.5
X181.0Y-83.75
X182.5Y-92.25
X182.5Y-97.15
X182.5Y-102.75
X183.4Y-107.0
X183.5Y-76.0
X184.0Y-97.75
X184.0Y-105.5
X184.0Y-111.5
X184.0Y-117.25
X184.36Y-77.37
X184.36Y-88.74
X188.5Y-76.05
X188.5Y-125.0
X189.0Y-118.0
X189.5Y-98.55
X189.5Y-107.0
X189.5Y-113.0
X190.5Y-118.0
X191.0Y-78.5
X191.0Y-83.75
X192.5Y-92.25
X192.5Y-97.15
X192.5Y-102.75
X193.4Y-107.0
X193.5Y-76.0
X194.0Y-97.75
X194.0Y-105.5
X194.0Y-111.5
X194.0Y-117.25
X194.36Y-77.37
X194.36Y-88.74
T0
M30
