G04 #@! TF.GenerationSoftware,KiCad,Pcbnew,(5.1.12)-1*
G04 #@! TF.CreationDate,2021-12-02T19:00:41+01:00*
G04 #@! TF.ProjectId,DIY Mic Electronic Panelized,44495920-4d69-4632-9045-6c656374726f,rev?*
G04 #@! TF.SameCoordinates,Original*
G04 #@! TF.FileFunction,Profile,NP*
%FSLAX46Y46*%
G04 Gerber Fmt 4.6, Leading zero omitted, Abs format (unit mm)*
G04 Created by KiCad (PCBNEW (5.1.12)-1) date 2021-12-02 19:00:41*
%MOMM*%
%LPD*%
G01*
G04 APERTURE LIST*
G04 #@! TA.AperFunction,Profile*
%ADD10C,0.050000*%
G04 #@! TD*
G04 APERTURE END LIST*
D10*
X179000000Y-128500000D02*
X173000000Y-128500000D01*
X189000000Y-128500000D02*
X183000000Y-128500000D01*
X163000000Y-128500000D02*
X169000000Y-128500000D01*
X153000000Y-128500000D02*
X159000000Y-128500000D01*
X143000000Y-128500000D02*
X149000000Y-128500000D01*
X133000000Y-128500000D02*
X139000000Y-128500000D01*
X123000000Y-128500000D02*
X129000000Y-128500000D01*
X113000000Y-128500000D02*
X119000000Y-128500000D01*
X103000000Y-128500000D02*
X109000000Y-128500000D01*
X97000000Y-128500000D02*
X99000000Y-128500000D01*
X97000000Y-136500000D02*
X97000000Y-128500000D01*
X195000000Y-136500000D02*
X97000000Y-136500000D01*
X195000000Y-128500000D02*
X195000000Y-136500000D01*
X193000000Y-128500000D02*
X195000000Y-128500000D01*
X109000000Y-65000000D02*
X103000000Y-65000000D01*
X119000000Y-65000000D02*
X113000000Y-65000000D01*
X129000000Y-65000000D02*
X123000000Y-65000000D01*
X139000000Y-65000000D02*
X133000000Y-65000000D01*
X149000000Y-65000000D02*
X143000000Y-65000000D01*
X159000000Y-65000000D02*
X153000000Y-65000000D01*
X169000000Y-65000000D02*
X163000000Y-65000000D01*
X179000000Y-65000000D02*
X173000000Y-65000000D01*
X189000000Y-65000000D02*
X183000000Y-65000000D01*
X195000000Y-65000000D02*
X193000000Y-65000000D01*
X195000000Y-57000000D02*
X195000000Y-65000000D01*
X97000000Y-57000000D02*
X195000000Y-57000000D01*
X97000000Y-65000000D02*
X97000000Y-57000000D01*
X99000000Y-65000000D02*
X97000000Y-65000000D01*
X189000000Y-67000000D02*
X187000000Y-67000000D01*
X179000000Y-67000000D02*
X177000000Y-67000000D01*
X169000000Y-67000000D02*
X167000000Y-67000000D01*
X159000000Y-67000000D02*
X157000000Y-67000000D01*
X149000000Y-67000000D02*
X147000000Y-67000000D01*
X139000000Y-67000000D02*
X137000000Y-67000000D01*
X129000000Y-67000000D02*
X127000000Y-67000000D01*
X119000000Y-67000000D02*
X117000000Y-67000000D01*
X109000000Y-67000000D02*
X107000000Y-67000000D01*
X193000000Y-67000000D02*
G75*
G02*
X193000000Y-65000000I0J1000000D01*
G01*
X183000000Y-67000000D02*
G75*
G02*
X183000000Y-65000000I0J1000000D01*
G01*
X173000000Y-67000000D02*
G75*
G02*
X173000000Y-65000000I0J1000000D01*
G01*
X163000000Y-67000000D02*
G75*
G02*
X163000000Y-65000000I0J1000000D01*
G01*
X153000000Y-67000000D02*
G75*
G02*
X153000000Y-65000000I0J1000000D01*
G01*
X143000000Y-67000000D02*
G75*
G02*
X143000000Y-65000000I0J1000000D01*
G01*
X133000000Y-67000000D02*
G75*
G02*
X133000000Y-65000000I0J1000000D01*
G01*
X123000000Y-67000000D02*
G75*
G02*
X123000000Y-65000000I0J1000000D01*
G01*
X113000000Y-67000000D02*
G75*
G02*
X113000000Y-65000000I0J1000000D01*
G01*
X189000000Y-126500000D02*
G75*
G02*
X189000000Y-128500000I0J-1000000D01*
G01*
X179000000Y-126500000D02*
G75*
G02*
X179000000Y-128500000I0J-1000000D01*
G01*
X169000000Y-126500000D02*
G75*
G02*
X169000000Y-128500000I0J-1000000D01*
G01*
X159000000Y-126500000D02*
G75*
G02*
X159000000Y-128500000I0J-1000000D01*
G01*
X149000000Y-126500000D02*
G75*
G02*
X149000000Y-128500000I0J-1000000D01*
G01*
X139000000Y-126500000D02*
G75*
G02*
X139000000Y-128500000I0J-1000000D01*
G01*
X129000000Y-126500000D02*
G75*
G02*
X129000000Y-128500000I0J-1000000D01*
G01*
X119000000Y-126500000D02*
G75*
G02*
X119000000Y-128500000I0J-1000000D01*
G01*
X109000000Y-126500000D02*
G75*
G02*
X109000000Y-128500000I0J-1000000D01*
G01*
X193000000Y-128500000D02*
G75*
G02*
X193000000Y-126500000I0J1000000D01*
G01*
X183000000Y-128500000D02*
G75*
G02*
X183000000Y-126500000I0J1000000D01*
G01*
X173000000Y-128500000D02*
G75*
G02*
X173000000Y-126500000I0J1000000D01*
G01*
X163000000Y-128500000D02*
G75*
G02*
X163000000Y-126500000I0J1000000D01*
G01*
X153000000Y-128500000D02*
G75*
G02*
X153000000Y-126500000I0J1000000D01*
G01*
X143000000Y-128500000D02*
G75*
G02*
X143000000Y-126500000I0J1000000D01*
G01*
X133000000Y-128500000D02*
G75*
G02*
X133000000Y-126500000I0J1000000D01*
G01*
X123000000Y-128500000D02*
G75*
G02*
X123000000Y-126500000I0J1000000D01*
G01*
X113000000Y-128500000D02*
G75*
G02*
X113000000Y-126500000I0J1000000D01*
G01*
X195000000Y-67000000D02*
X193000000Y-67000000D01*
X185000000Y-67000000D02*
X183000000Y-67000000D01*
X175000000Y-67000000D02*
X173000000Y-67000000D01*
X165000000Y-67000000D02*
X163000000Y-67000000D01*
X155000000Y-67000000D02*
X153000000Y-67000000D01*
X145000000Y-67000000D02*
X143000000Y-67000000D01*
X135000000Y-67000000D02*
X133000000Y-67000000D01*
X125000000Y-67000000D02*
X123000000Y-67000000D01*
X115000000Y-67000000D02*
X113000000Y-67000000D01*
X189000000Y-65000000D02*
G75*
G02*
X189000000Y-67000000I0J-1000000D01*
G01*
X179000000Y-65000000D02*
G75*
G02*
X179000000Y-67000000I0J-1000000D01*
G01*
X169000000Y-65000000D02*
G75*
G02*
X169000000Y-67000000I0J-1000000D01*
G01*
X159000000Y-65000000D02*
G75*
G02*
X159000000Y-67000000I0J-1000000D01*
G01*
X149000000Y-65000000D02*
G75*
G02*
X149000000Y-67000000I0J-1000000D01*
G01*
X139000000Y-65000000D02*
G75*
G02*
X139000000Y-67000000I0J-1000000D01*
G01*
X129000000Y-65000000D02*
G75*
G02*
X129000000Y-67000000I0J-1000000D01*
G01*
X119000000Y-65000000D02*
G75*
G02*
X119000000Y-67000000I0J-1000000D01*
G01*
X109000000Y-65000000D02*
G75*
G02*
X109000000Y-67000000I0J-1000000D01*
G01*
X189000000Y-126500000D02*
X187000000Y-126500000D01*
X179000000Y-126500000D02*
X177000000Y-126500000D01*
X169000000Y-126500000D02*
X167000000Y-126500000D01*
X159000000Y-126500000D02*
X157000000Y-126500000D01*
X149000000Y-126500000D02*
X147000000Y-126500000D01*
X139000000Y-126500000D02*
X137000000Y-126500000D01*
X129000000Y-126500000D02*
X127000000Y-126500000D01*
X119000000Y-126500000D02*
X117000000Y-126500000D01*
X109000000Y-126500000D02*
X107000000Y-126500000D01*
X195000000Y-126500000D02*
X193000000Y-126500000D01*
X185000000Y-126500000D02*
X183000000Y-126500000D01*
X175000000Y-126500000D02*
X173000000Y-126500000D01*
X165000000Y-126500000D02*
X163000000Y-126500000D01*
X155000000Y-126500000D02*
X153000000Y-126500000D01*
X145000000Y-126500000D02*
X143000000Y-126500000D01*
X135000000Y-126500000D02*
X133000000Y-126500000D01*
X125000000Y-126500000D02*
X123000000Y-126500000D01*
X115000000Y-126500000D02*
X113000000Y-126500000D01*
X187000000Y-126500000D02*
X187000000Y-67000000D01*
X177000000Y-126500000D02*
X177000000Y-67000000D01*
X167000000Y-126500000D02*
X167000000Y-67000000D01*
X157000000Y-126500000D02*
X157000000Y-67000000D01*
X147000000Y-126500000D02*
X147000000Y-67000000D01*
X137000000Y-126500000D02*
X137000000Y-67000000D01*
X127000000Y-126500000D02*
X127000000Y-67000000D01*
X117000000Y-126500000D02*
X117000000Y-67000000D01*
X107000000Y-126500000D02*
X107000000Y-67000000D01*
X195000000Y-126500000D02*
X195000000Y-67000000D01*
X185000000Y-126500000D02*
X185000000Y-67000000D01*
X175000000Y-126500000D02*
X175000000Y-67000000D01*
X165000000Y-126500000D02*
X165000000Y-67000000D01*
X155000000Y-126500000D02*
X155000000Y-67000000D01*
X145000000Y-126500000D02*
X145000000Y-67000000D01*
X135000000Y-126500000D02*
X135000000Y-67000000D01*
X125000000Y-126500000D02*
X125000000Y-67000000D01*
X115000000Y-126500000D02*
X115000000Y-67000000D01*
X99000000Y-67000000D02*
X97000000Y-67000000D01*
X105000000Y-67000000D02*
X103000000Y-67000000D01*
X103000000Y-67000000D02*
G75*
G02*
X103000000Y-65000000I0J1000000D01*
G01*
X99000000Y-65000000D02*
G75*
G02*
X99000000Y-67000000I0J-1000000D01*
G01*
X99000000Y-126500000D02*
G75*
G02*
X99000000Y-128500000I0J-1000000D01*
G01*
X103000000Y-128500000D02*
G75*
G02*
X103000000Y-126500000I0J1000000D01*
G01*
X99000000Y-126500000D02*
X97000000Y-126500000D01*
X105000000Y-126500000D02*
X103000000Y-126500000D01*
X105000000Y-126500000D02*
X105000000Y-67000000D01*
X97000000Y-126500000D02*
X97000000Y-67000000D01*
M02*
