G04 #@! TF.GenerationSoftware,KiCad,Pcbnew,(5.1.12)-1*
G04 #@! TF.CreationDate,2021-12-02T19:00:41+01:00*
G04 #@! TF.ProjectId,DIY Mic Electronic Panelized,44495920-4d69-4632-9045-6c656374726f,rev?*
G04 #@! TF.SameCoordinates,Original*
G04 #@! TF.FileFunction,Soldermask,Top*
G04 #@! TF.FilePolarity,Negative*
%FSLAX46Y46*%
G04 Gerber Fmt 4.6, Leading zero omitted, Abs format (unit mm)*
G04 Created by KiCad (PCBNEW (5.1.12)-1) date 2021-12-02 19:00:41*
%MOMM*%
%LPD*%
G01*
G04 APERTURE LIST*
%ADD10C,0.500000*%
%ADD11R,1.850000X3.450000*%
G04 APERTURE END LIST*
D10*
X191000000Y-128250000D03*
X191000000Y-126750000D03*
X190250000Y-128250000D03*
X191750000Y-128250000D03*
X191750000Y-126750000D03*
X190250000Y-126750000D03*
X181000000Y-128250000D03*
X181000000Y-126750000D03*
X180250000Y-128250000D03*
X181750000Y-128250000D03*
X181750000Y-126750000D03*
X180250000Y-126750000D03*
X171000000Y-128250000D03*
X171000000Y-126750000D03*
X170250000Y-128250000D03*
X171750000Y-128250000D03*
X171750000Y-126750000D03*
X170250000Y-126750000D03*
X161000000Y-128250000D03*
X161000000Y-126750000D03*
X160250000Y-128250000D03*
X161750000Y-128250000D03*
X161750000Y-126750000D03*
X160250000Y-126750000D03*
X151000000Y-128250000D03*
X151000000Y-126750000D03*
X150250000Y-128250000D03*
X151750000Y-128250000D03*
X151750000Y-126750000D03*
X150250000Y-126750000D03*
X141000000Y-128250000D03*
X141000000Y-126750000D03*
X140250000Y-128250000D03*
X141750000Y-128250000D03*
X141750000Y-126750000D03*
X140250000Y-126750000D03*
X131000000Y-128250000D03*
X131000000Y-126750000D03*
X130250000Y-128250000D03*
X131750000Y-128250000D03*
X131750000Y-126750000D03*
X130250000Y-126750000D03*
X121000000Y-128250000D03*
X121000000Y-126750000D03*
X120250000Y-128250000D03*
X121750000Y-128250000D03*
X121750000Y-126750000D03*
X120250000Y-126750000D03*
X111000000Y-128250000D03*
X111000000Y-126750000D03*
X110250000Y-128250000D03*
X111750000Y-128250000D03*
X111750000Y-126750000D03*
X110250000Y-126750000D03*
X191750000Y-66750000D03*
X190250000Y-66750000D03*
X190250000Y-65250000D03*
X191750000Y-65250000D03*
X191000000Y-66750000D03*
X191000000Y-65250000D03*
X181750000Y-66750000D03*
X180250000Y-66750000D03*
X180250000Y-65250000D03*
X181750000Y-65250000D03*
X181000000Y-66750000D03*
X181000000Y-65250000D03*
X171750000Y-66750000D03*
X170250000Y-66750000D03*
X170250000Y-65250000D03*
X171750000Y-65250000D03*
X171000000Y-66750000D03*
X171000000Y-65250000D03*
X161750000Y-66750000D03*
X160250000Y-66750000D03*
X160250000Y-65250000D03*
X161750000Y-65250000D03*
X161000000Y-66750000D03*
X161000000Y-65250000D03*
X151750000Y-66750000D03*
X150250000Y-66750000D03*
X150250000Y-65250000D03*
X151750000Y-65250000D03*
X151000000Y-66750000D03*
X151000000Y-65250000D03*
X141750000Y-66750000D03*
X140250000Y-66750000D03*
X140250000Y-65250000D03*
X141750000Y-65250000D03*
X141000000Y-66750000D03*
X141000000Y-65250000D03*
X131750000Y-66750000D03*
X130250000Y-66750000D03*
X130250000Y-65250000D03*
X131750000Y-65250000D03*
X131000000Y-66750000D03*
X131000000Y-65250000D03*
X121750000Y-66750000D03*
X120250000Y-66750000D03*
X120250000Y-65250000D03*
X121750000Y-65250000D03*
X121000000Y-66750000D03*
X121000000Y-65250000D03*
X111750000Y-66750000D03*
X110250000Y-66750000D03*
X110250000Y-65250000D03*
X111750000Y-65250000D03*
X111000000Y-66750000D03*
X111000000Y-65250000D03*
G36*
G01*
X190450000Y-99200000D02*
X191550000Y-99200000D01*
G75*
G02*
X191800000Y-99450000I0J-250000D01*
G01*
X191800000Y-101950000D01*
G75*
G02*
X191550000Y-102200000I-250000J0D01*
G01*
X190450000Y-102200000D01*
G75*
G02*
X190200000Y-101950000I0J250000D01*
G01*
X190200000Y-99450000D01*
G75*
G02*
X190450000Y-99200000I250000J0D01*
G01*
G37*
G36*
G01*
X190450000Y-94800000D02*
X191550000Y-94800000D01*
G75*
G02*
X191800000Y-95050000I0J-250000D01*
G01*
X191800000Y-97550000D01*
G75*
G02*
X191550000Y-97800000I-250000J0D01*
G01*
X190450000Y-97800000D01*
G75*
G02*
X190200000Y-97550000I0J250000D01*
G01*
X190200000Y-95050000D01*
G75*
G02*
X190450000Y-94800000I250000J0D01*
G01*
G37*
G36*
G01*
X180450000Y-99200000D02*
X181550000Y-99200000D01*
G75*
G02*
X181800000Y-99450000I0J-250000D01*
G01*
X181800000Y-101950000D01*
G75*
G02*
X181550000Y-102200000I-250000J0D01*
G01*
X180450000Y-102200000D01*
G75*
G02*
X180200000Y-101950000I0J250000D01*
G01*
X180200000Y-99450000D01*
G75*
G02*
X180450000Y-99200000I250000J0D01*
G01*
G37*
G36*
G01*
X180450000Y-94800000D02*
X181550000Y-94800000D01*
G75*
G02*
X181800000Y-95050000I0J-250000D01*
G01*
X181800000Y-97550000D01*
G75*
G02*
X181550000Y-97800000I-250000J0D01*
G01*
X180450000Y-97800000D01*
G75*
G02*
X180200000Y-97550000I0J250000D01*
G01*
X180200000Y-95050000D01*
G75*
G02*
X180450000Y-94800000I250000J0D01*
G01*
G37*
G36*
G01*
X170450000Y-99200000D02*
X171550000Y-99200000D01*
G75*
G02*
X171800000Y-99450000I0J-250000D01*
G01*
X171800000Y-101950000D01*
G75*
G02*
X171550000Y-102200000I-250000J0D01*
G01*
X170450000Y-102200000D01*
G75*
G02*
X170200000Y-101950000I0J250000D01*
G01*
X170200000Y-99450000D01*
G75*
G02*
X170450000Y-99200000I250000J0D01*
G01*
G37*
G36*
G01*
X170450000Y-94800000D02*
X171550000Y-94800000D01*
G75*
G02*
X171800000Y-95050000I0J-250000D01*
G01*
X171800000Y-97550000D01*
G75*
G02*
X171550000Y-97800000I-250000J0D01*
G01*
X170450000Y-97800000D01*
G75*
G02*
X170200000Y-97550000I0J250000D01*
G01*
X170200000Y-95050000D01*
G75*
G02*
X170450000Y-94800000I250000J0D01*
G01*
G37*
G36*
G01*
X160450000Y-99200000D02*
X161550000Y-99200000D01*
G75*
G02*
X161800000Y-99450000I0J-250000D01*
G01*
X161800000Y-101950000D01*
G75*
G02*
X161550000Y-102200000I-250000J0D01*
G01*
X160450000Y-102200000D01*
G75*
G02*
X160200000Y-101950000I0J250000D01*
G01*
X160200000Y-99450000D01*
G75*
G02*
X160450000Y-99200000I250000J0D01*
G01*
G37*
G36*
G01*
X160450000Y-94800000D02*
X161550000Y-94800000D01*
G75*
G02*
X161800000Y-95050000I0J-250000D01*
G01*
X161800000Y-97550000D01*
G75*
G02*
X161550000Y-97800000I-250000J0D01*
G01*
X160450000Y-97800000D01*
G75*
G02*
X160200000Y-97550000I0J250000D01*
G01*
X160200000Y-95050000D01*
G75*
G02*
X160450000Y-94800000I250000J0D01*
G01*
G37*
G36*
G01*
X150450000Y-99200000D02*
X151550000Y-99200000D01*
G75*
G02*
X151800000Y-99450000I0J-250000D01*
G01*
X151800000Y-101950000D01*
G75*
G02*
X151550000Y-102200000I-250000J0D01*
G01*
X150450000Y-102200000D01*
G75*
G02*
X150200000Y-101950000I0J250000D01*
G01*
X150200000Y-99450000D01*
G75*
G02*
X150450000Y-99200000I250000J0D01*
G01*
G37*
G36*
G01*
X150450000Y-94800000D02*
X151550000Y-94800000D01*
G75*
G02*
X151800000Y-95050000I0J-250000D01*
G01*
X151800000Y-97550000D01*
G75*
G02*
X151550000Y-97800000I-250000J0D01*
G01*
X150450000Y-97800000D01*
G75*
G02*
X150200000Y-97550000I0J250000D01*
G01*
X150200000Y-95050000D01*
G75*
G02*
X150450000Y-94800000I250000J0D01*
G01*
G37*
G36*
G01*
X140450000Y-99200000D02*
X141550000Y-99200000D01*
G75*
G02*
X141800000Y-99450000I0J-250000D01*
G01*
X141800000Y-101950000D01*
G75*
G02*
X141550000Y-102200000I-250000J0D01*
G01*
X140450000Y-102200000D01*
G75*
G02*
X140200000Y-101950000I0J250000D01*
G01*
X140200000Y-99450000D01*
G75*
G02*
X140450000Y-99200000I250000J0D01*
G01*
G37*
G36*
G01*
X140450000Y-94800000D02*
X141550000Y-94800000D01*
G75*
G02*
X141800000Y-95050000I0J-250000D01*
G01*
X141800000Y-97550000D01*
G75*
G02*
X141550000Y-97800000I-250000J0D01*
G01*
X140450000Y-97800000D01*
G75*
G02*
X140200000Y-97550000I0J250000D01*
G01*
X140200000Y-95050000D01*
G75*
G02*
X140450000Y-94800000I250000J0D01*
G01*
G37*
G36*
G01*
X130450000Y-99200000D02*
X131550000Y-99200000D01*
G75*
G02*
X131800000Y-99450000I0J-250000D01*
G01*
X131800000Y-101950000D01*
G75*
G02*
X131550000Y-102200000I-250000J0D01*
G01*
X130450000Y-102200000D01*
G75*
G02*
X130200000Y-101950000I0J250000D01*
G01*
X130200000Y-99450000D01*
G75*
G02*
X130450000Y-99200000I250000J0D01*
G01*
G37*
G36*
G01*
X130450000Y-94800000D02*
X131550000Y-94800000D01*
G75*
G02*
X131800000Y-95050000I0J-250000D01*
G01*
X131800000Y-97550000D01*
G75*
G02*
X131550000Y-97800000I-250000J0D01*
G01*
X130450000Y-97800000D01*
G75*
G02*
X130200000Y-97550000I0J250000D01*
G01*
X130200000Y-95050000D01*
G75*
G02*
X130450000Y-94800000I250000J0D01*
G01*
G37*
G36*
G01*
X120450000Y-99200000D02*
X121550000Y-99200000D01*
G75*
G02*
X121800000Y-99450000I0J-250000D01*
G01*
X121800000Y-101950000D01*
G75*
G02*
X121550000Y-102200000I-250000J0D01*
G01*
X120450000Y-102200000D01*
G75*
G02*
X120200000Y-101950000I0J250000D01*
G01*
X120200000Y-99450000D01*
G75*
G02*
X120450000Y-99200000I250000J0D01*
G01*
G37*
G36*
G01*
X120450000Y-94800000D02*
X121550000Y-94800000D01*
G75*
G02*
X121800000Y-95050000I0J-250000D01*
G01*
X121800000Y-97550000D01*
G75*
G02*
X121550000Y-97800000I-250000J0D01*
G01*
X120450000Y-97800000D01*
G75*
G02*
X120200000Y-97550000I0J250000D01*
G01*
X120200000Y-95050000D01*
G75*
G02*
X120450000Y-94800000I250000J0D01*
G01*
G37*
G36*
G01*
X110450000Y-99200000D02*
X111550000Y-99200000D01*
G75*
G02*
X111800000Y-99450000I0J-250000D01*
G01*
X111800000Y-101950000D01*
G75*
G02*
X111550000Y-102200000I-250000J0D01*
G01*
X110450000Y-102200000D01*
G75*
G02*
X110200000Y-101950000I0J250000D01*
G01*
X110200000Y-99450000D01*
G75*
G02*
X110450000Y-99200000I250000J0D01*
G01*
G37*
G36*
G01*
X110450000Y-94800000D02*
X111550000Y-94800000D01*
G75*
G02*
X111800000Y-95050000I0J-250000D01*
G01*
X111800000Y-97550000D01*
G75*
G02*
X111550000Y-97800000I-250000J0D01*
G01*
X110450000Y-97800000D01*
G75*
G02*
X110200000Y-97550000I0J250000D01*
G01*
X110200000Y-95050000D01*
G75*
G02*
X110450000Y-94800000I250000J0D01*
G01*
G37*
G36*
G01*
X190450000Y-86300000D02*
X191550000Y-86300000D01*
G75*
G02*
X191800000Y-86550000I0J-250000D01*
G01*
X191800000Y-89050000D01*
G75*
G02*
X191550000Y-89300000I-250000J0D01*
G01*
X190450000Y-89300000D01*
G75*
G02*
X190200000Y-89050000I0J250000D01*
G01*
X190200000Y-86550000D01*
G75*
G02*
X190450000Y-86300000I250000J0D01*
G01*
G37*
G36*
G01*
X190450000Y-90700000D02*
X191550000Y-90700000D01*
G75*
G02*
X191800000Y-90950000I0J-250000D01*
G01*
X191800000Y-93450000D01*
G75*
G02*
X191550000Y-93700000I-250000J0D01*
G01*
X190450000Y-93700000D01*
G75*
G02*
X190200000Y-93450000I0J250000D01*
G01*
X190200000Y-90950000D01*
G75*
G02*
X190450000Y-90700000I250000J0D01*
G01*
G37*
G36*
G01*
X180450000Y-86300000D02*
X181550000Y-86300000D01*
G75*
G02*
X181800000Y-86550000I0J-250000D01*
G01*
X181800000Y-89050000D01*
G75*
G02*
X181550000Y-89300000I-250000J0D01*
G01*
X180450000Y-89300000D01*
G75*
G02*
X180200000Y-89050000I0J250000D01*
G01*
X180200000Y-86550000D01*
G75*
G02*
X180450000Y-86300000I250000J0D01*
G01*
G37*
G36*
G01*
X180450000Y-90700000D02*
X181550000Y-90700000D01*
G75*
G02*
X181800000Y-90950000I0J-250000D01*
G01*
X181800000Y-93450000D01*
G75*
G02*
X181550000Y-93700000I-250000J0D01*
G01*
X180450000Y-93700000D01*
G75*
G02*
X180200000Y-93450000I0J250000D01*
G01*
X180200000Y-90950000D01*
G75*
G02*
X180450000Y-90700000I250000J0D01*
G01*
G37*
G36*
G01*
X170450000Y-86300000D02*
X171550000Y-86300000D01*
G75*
G02*
X171800000Y-86550000I0J-250000D01*
G01*
X171800000Y-89050000D01*
G75*
G02*
X171550000Y-89300000I-250000J0D01*
G01*
X170450000Y-89300000D01*
G75*
G02*
X170200000Y-89050000I0J250000D01*
G01*
X170200000Y-86550000D01*
G75*
G02*
X170450000Y-86300000I250000J0D01*
G01*
G37*
G36*
G01*
X170450000Y-90700000D02*
X171550000Y-90700000D01*
G75*
G02*
X171800000Y-90950000I0J-250000D01*
G01*
X171800000Y-93450000D01*
G75*
G02*
X171550000Y-93700000I-250000J0D01*
G01*
X170450000Y-93700000D01*
G75*
G02*
X170200000Y-93450000I0J250000D01*
G01*
X170200000Y-90950000D01*
G75*
G02*
X170450000Y-90700000I250000J0D01*
G01*
G37*
G36*
G01*
X160450000Y-86300000D02*
X161550000Y-86300000D01*
G75*
G02*
X161800000Y-86550000I0J-250000D01*
G01*
X161800000Y-89050000D01*
G75*
G02*
X161550000Y-89300000I-250000J0D01*
G01*
X160450000Y-89300000D01*
G75*
G02*
X160200000Y-89050000I0J250000D01*
G01*
X160200000Y-86550000D01*
G75*
G02*
X160450000Y-86300000I250000J0D01*
G01*
G37*
G36*
G01*
X160450000Y-90700000D02*
X161550000Y-90700000D01*
G75*
G02*
X161800000Y-90950000I0J-250000D01*
G01*
X161800000Y-93450000D01*
G75*
G02*
X161550000Y-93700000I-250000J0D01*
G01*
X160450000Y-93700000D01*
G75*
G02*
X160200000Y-93450000I0J250000D01*
G01*
X160200000Y-90950000D01*
G75*
G02*
X160450000Y-90700000I250000J0D01*
G01*
G37*
G36*
G01*
X150450000Y-86300000D02*
X151550000Y-86300000D01*
G75*
G02*
X151800000Y-86550000I0J-250000D01*
G01*
X151800000Y-89050000D01*
G75*
G02*
X151550000Y-89300000I-250000J0D01*
G01*
X150450000Y-89300000D01*
G75*
G02*
X150200000Y-89050000I0J250000D01*
G01*
X150200000Y-86550000D01*
G75*
G02*
X150450000Y-86300000I250000J0D01*
G01*
G37*
G36*
G01*
X150450000Y-90700000D02*
X151550000Y-90700000D01*
G75*
G02*
X151800000Y-90950000I0J-250000D01*
G01*
X151800000Y-93450000D01*
G75*
G02*
X151550000Y-93700000I-250000J0D01*
G01*
X150450000Y-93700000D01*
G75*
G02*
X150200000Y-93450000I0J250000D01*
G01*
X150200000Y-90950000D01*
G75*
G02*
X150450000Y-90700000I250000J0D01*
G01*
G37*
G36*
G01*
X140450000Y-86300000D02*
X141550000Y-86300000D01*
G75*
G02*
X141800000Y-86550000I0J-250000D01*
G01*
X141800000Y-89050000D01*
G75*
G02*
X141550000Y-89300000I-250000J0D01*
G01*
X140450000Y-89300000D01*
G75*
G02*
X140200000Y-89050000I0J250000D01*
G01*
X140200000Y-86550000D01*
G75*
G02*
X140450000Y-86300000I250000J0D01*
G01*
G37*
G36*
G01*
X140450000Y-90700000D02*
X141550000Y-90700000D01*
G75*
G02*
X141800000Y-90950000I0J-250000D01*
G01*
X141800000Y-93450000D01*
G75*
G02*
X141550000Y-93700000I-250000J0D01*
G01*
X140450000Y-93700000D01*
G75*
G02*
X140200000Y-93450000I0J250000D01*
G01*
X140200000Y-90950000D01*
G75*
G02*
X140450000Y-90700000I250000J0D01*
G01*
G37*
G36*
G01*
X130450000Y-86300000D02*
X131550000Y-86300000D01*
G75*
G02*
X131800000Y-86550000I0J-250000D01*
G01*
X131800000Y-89050000D01*
G75*
G02*
X131550000Y-89300000I-250000J0D01*
G01*
X130450000Y-89300000D01*
G75*
G02*
X130200000Y-89050000I0J250000D01*
G01*
X130200000Y-86550000D01*
G75*
G02*
X130450000Y-86300000I250000J0D01*
G01*
G37*
G36*
G01*
X130450000Y-90700000D02*
X131550000Y-90700000D01*
G75*
G02*
X131800000Y-90950000I0J-250000D01*
G01*
X131800000Y-93450000D01*
G75*
G02*
X131550000Y-93700000I-250000J0D01*
G01*
X130450000Y-93700000D01*
G75*
G02*
X130200000Y-93450000I0J250000D01*
G01*
X130200000Y-90950000D01*
G75*
G02*
X130450000Y-90700000I250000J0D01*
G01*
G37*
G36*
G01*
X120450000Y-86300000D02*
X121550000Y-86300000D01*
G75*
G02*
X121800000Y-86550000I0J-250000D01*
G01*
X121800000Y-89050000D01*
G75*
G02*
X121550000Y-89300000I-250000J0D01*
G01*
X120450000Y-89300000D01*
G75*
G02*
X120200000Y-89050000I0J250000D01*
G01*
X120200000Y-86550000D01*
G75*
G02*
X120450000Y-86300000I250000J0D01*
G01*
G37*
G36*
G01*
X120450000Y-90700000D02*
X121550000Y-90700000D01*
G75*
G02*
X121800000Y-90950000I0J-250000D01*
G01*
X121800000Y-93450000D01*
G75*
G02*
X121550000Y-93700000I-250000J0D01*
G01*
X120450000Y-93700000D01*
G75*
G02*
X120200000Y-93450000I0J250000D01*
G01*
X120200000Y-90950000D01*
G75*
G02*
X120450000Y-90700000I250000J0D01*
G01*
G37*
G36*
G01*
X110450000Y-86300000D02*
X111550000Y-86300000D01*
G75*
G02*
X111800000Y-86550000I0J-250000D01*
G01*
X111800000Y-89050000D01*
G75*
G02*
X111550000Y-89300000I-250000J0D01*
G01*
X110450000Y-89300000D01*
G75*
G02*
X110200000Y-89050000I0J250000D01*
G01*
X110200000Y-86550000D01*
G75*
G02*
X110450000Y-86300000I250000J0D01*
G01*
G37*
G36*
G01*
X110450000Y-90700000D02*
X111550000Y-90700000D01*
G75*
G02*
X111800000Y-90950000I0J-250000D01*
G01*
X111800000Y-93450000D01*
G75*
G02*
X111550000Y-93700000I-250000J0D01*
G01*
X110450000Y-93700000D01*
G75*
G02*
X110200000Y-93450000I0J250000D01*
G01*
X110200000Y-90950000D01*
G75*
G02*
X110450000Y-90700000I250000J0D01*
G01*
G37*
G36*
G01*
X190450000Y-82200000D02*
X191550000Y-82200000D01*
G75*
G02*
X191800000Y-82450000I0J-250000D01*
G01*
X191800000Y-84950000D01*
G75*
G02*
X191550000Y-85200000I-250000J0D01*
G01*
X190450000Y-85200000D01*
G75*
G02*
X190200000Y-84950000I0J250000D01*
G01*
X190200000Y-82450000D01*
G75*
G02*
X190450000Y-82200000I250000J0D01*
G01*
G37*
G36*
G01*
X190450000Y-77800000D02*
X191550000Y-77800000D01*
G75*
G02*
X191800000Y-78050000I0J-250000D01*
G01*
X191800000Y-80550000D01*
G75*
G02*
X191550000Y-80800000I-250000J0D01*
G01*
X190450000Y-80800000D01*
G75*
G02*
X190200000Y-80550000I0J250000D01*
G01*
X190200000Y-78050000D01*
G75*
G02*
X190450000Y-77800000I250000J0D01*
G01*
G37*
G36*
G01*
X180450000Y-82200000D02*
X181550000Y-82200000D01*
G75*
G02*
X181800000Y-82450000I0J-250000D01*
G01*
X181800000Y-84950000D01*
G75*
G02*
X181550000Y-85200000I-250000J0D01*
G01*
X180450000Y-85200000D01*
G75*
G02*
X180200000Y-84950000I0J250000D01*
G01*
X180200000Y-82450000D01*
G75*
G02*
X180450000Y-82200000I250000J0D01*
G01*
G37*
G36*
G01*
X180450000Y-77800000D02*
X181550000Y-77800000D01*
G75*
G02*
X181800000Y-78050000I0J-250000D01*
G01*
X181800000Y-80550000D01*
G75*
G02*
X181550000Y-80800000I-250000J0D01*
G01*
X180450000Y-80800000D01*
G75*
G02*
X180200000Y-80550000I0J250000D01*
G01*
X180200000Y-78050000D01*
G75*
G02*
X180450000Y-77800000I250000J0D01*
G01*
G37*
G36*
G01*
X170450000Y-82200000D02*
X171550000Y-82200000D01*
G75*
G02*
X171800000Y-82450000I0J-250000D01*
G01*
X171800000Y-84950000D01*
G75*
G02*
X171550000Y-85200000I-250000J0D01*
G01*
X170450000Y-85200000D01*
G75*
G02*
X170200000Y-84950000I0J250000D01*
G01*
X170200000Y-82450000D01*
G75*
G02*
X170450000Y-82200000I250000J0D01*
G01*
G37*
G36*
G01*
X170450000Y-77800000D02*
X171550000Y-77800000D01*
G75*
G02*
X171800000Y-78050000I0J-250000D01*
G01*
X171800000Y-80550000D01*
G75*
G02*
X171550000Y-80800000I-250000J0D01*
G01*
X170450000Y-80800000D01*
G75*
G02*
X170200000Y-80550000I0J250000D01*
G01*
X170200000Y-78050000D01*
G75*
G02*
X170450000Y-77800000I250000J0D01*
G01*
G37*
G36*
G01*
X160450000Y-82200000D02*
X161550000Y-82200000D01*
G75*
G02*
X161800000Y-82450000I0J-250000D01*
G01*
X161800000Y-84950000D01*
G75*
G02*
X161550000Y-85200000I-250000J0D01*
G01*
X160450000Y-85200000D01*
G75*
G02*
X160200000Y-84950000I0J250000D01*
G01*
X160200000Y-82450000D01*
G75*
G02*
X160450000Y-82200000I250000J0D01*
G01*
G37*
G36*
G01*
X160450000Y-77800000D02*
X161550000Y-77800000D01*
G75*
G02*
X161800000Y-78050000I0J-250000D01*
G01*
X161800000Y-80550000D01*
G75*
G02*
X161550000Y-80800000I-250000J0D01*
G01*
X160450000Y-80800000D01*
G75*
G02*
X160200000Y-80550000I0J250000D01*
G01*
X160200000Y-78050000D01*
G75*
G02*
X160450000Y-77800000I250000J0D01*
G01*
G37*
G36*
G01*
X150450000Y-82200000D02*
X151550000Y-82200000D01*
G75*
G02*
X151800000Y-82450000I0J-250000D01*
G01*
X151800000Y-84950000D01*
G75*
G02*
X151550000Y-85200000I-250000J0D01*
G01*
X150450000Y-85200000D01*
G75*
G02*
X150200000Y-84950000I0J250000D01*
G01*
X150200000Y-82450000D01*
G75*
G02*
X150450000Y-82200000I250000J0D01*
G01*
G37*
G36*
G01*
X150450000Y-77800000D02*
X151550000Y-77800000D01*
G75*
G02*
X151800000Y-78050000I0J-250000D01*
G01*
X151800000Y-80550000D01*
G75*
G02*
X151550000Y-80800000I-250000J0D01*
G01*
X150450000Y-80800000D01*
G75*
G02*
X150200000Y-80550000I0J250000D01*
G01*
X150200000Y-78050000D01*
G75*
G02*
X150450000Y-77800000I250000J0D01*
G01*
G37*
G36*
G01*
X140450000Y-82200000D02*
X141550000Y-82200000D01*
G75*
G02*
X141800000Y-82450000I0J-250000D01*
G01*
X141800000Y-84950000D01*
G75*
G02*
X141550000Y-85200000I-250000J0D01*
G01*
X140450000Y-85200000D01*
G75*
G02*
X140200000Y-84950000I0J250000D01*
G01*
X140200000Y-82450000D01*
G75*
G02*
X140450000Y-82200000I250000J0D01*
G01*
G37*
G36*
G01*
X140450000Y-77800000D02*
X141550000Y-77800000D01*
G75*
G02*
X141800000Y-78050000I0J-250000D01*
G01*
X141800000Y-80550000D01*
G75*
G02*
X141550000Y-80800000I-250000J0D01*
G01*
X140450000Y-80800000D01*
G75*
G02*
X140200000Y-80550000I0J250000D01*
G01*
X140200000Y-78050000D01*
G75*
G02*
X140450000Y-77800000I250000J0D01*
G01*
G37*
G36*
G01*
X130450000Y-82200000D02*
X131550000Y-82200000D01*
G75*
G02*
X131800000Y-82450000I0J-250000D01*
G01*
X131800000Y-84950000D01*
G75*
G02*
X131550000Y-85200000I-250000J0D01*
G01*
X130450000Y-85200000D01*
G75*
G02*
X130200000Y-84950000I0J250000D01*
G01*
X130200000Y-82450000D01*
G75*
G02*
X130450000Y-82200000I250000J0D01*
G01*
G37*
G36*
G01*
X130450000Y-77800000D02*
X131550000Y-77800000D01*
G75*
G02*
X131800000Y-78050000I0J-250000D01*
G01*
X131800000Y-80550000D01*
G75*
G02*
X131550000Y-80800000I-250000J0D01*
G01*
X130450000Y-80800000D01*
G75*
G02*
X130200000Y-80550000I0J250000D01*
G01*
X130200000Y-78050000D01*
G75*
G02*
X130450000Y-77800000I250000J0D01*
G01*
G37*
G36*
G01*
X120450000Y-82200000D02*
X121550000Y-82200000D01*
G75*
G02*
X121800000Y-82450000I0J-250000D01*
G01*
X121800000Y-84950000D01*
G75*
G02*
X121550000Y-85200000I-250000J0D01*
G01*
X120450000Y-85200000D01*
G75*
G02*
X120200000Y-84950000I0J250000D01*
G01*
X120200000Y-82450000D01*
G75*
G02*
X120450000Y-82200000I250000J0D01*
G01*
G37*
G36*
G01*
X120450000Y-77800000D02*
X121550000Y-77800000D01*
G75*
G02*
X121800000Y-78050000I0J-250000D01*
G01*
X121800000Y-80550000D01*
G75*
G02*
X121550000Y-80800000I-250000J0D01*
G01*
X120450000Y-80800000D01*
G75*
G02*
X120200000Y-80550000I0J250000D01*
G01*
X120200000Y-78050000D01*
G75*
G02*
X120450000Y-77800000I250000J0D01*
G01*
G37*
G36*
G01*
X110450000Y-82200000D02*
X111550000Y-82200000D01*
G75*
G02*
X111800000Y-82450000I0J-250000D01*
G01*
X111800000Y-84950000D01*
G75*
G02*
X111550000Y-85200000I-250000J0D01*
G01*
X110450000Y-85200000D01*
G75*
G02*
X110200000Y-84950000I0J250000D01*
G01*
X110200000Y-82450000D01*
G75*
G02*
X110450000Y-82200000I250000J0D01*
G01*
G37*
G36*
G01*
X110450000Y-77800000D02*
X111550000Y-77800000D01*
G75*
G02*
X111800000Y-78050000I0J-250000D01*
G01*
X111800000Y-80550000D01*
G75*
G02*
X111550000Y-80800000I-250000J0D01*
G01*
X110450000Y-80800000D01*
G75*
G02*
X110200000Y-80550000I0J250000D01*
G01*
X110200000Y-78050000D01*
G75*
G02*
X110450000Y-77800000I250000J0D01*
G01*
G37*
G36*
G01*
X191550000Y-110700000D02*
X190450000Y-110700000D01*
G75*
G02*
X190200000Y-110450000I0J250000D01*
G01*
X190200000Y-107950000D01*
G75*
G02*
X190450000Y-107700000I250000J0D01*
G01*
X191550000Y-107700000D01*
G75*
G02*
X191800000Y-107950000I0J-250000D01*
G01*
X191800000Y-110450000D01*
G75*
G02*
X191550000Y-110700000I-250000J0D01*
G01*
G37*
G36*
G01*
X191550000Y-106300000D02*
X190450000Y-106300000D01*
G75*
G02*
X190200000Y-106050000I0J250000D01*
G01*
X190200000Y-103550000D01*
G75*
G02*
X190450000Y-103300000I250000J0D01*
G01*
X191550000Y-103300000D01*
G75*
G02*
X191800000Y-103550000I0J-250000D01*
G01*
X191800000Y-106050000D01*
G75*
G02*
X191550000Y-106300000I-250000J0D01*
G01*
G37*
G36*
G01*
X181550000Y-110700000D02*
X180450000Y-110700000D01*
G75*
G02*
X180200000Y-110450000I0J250000D01*
G01*
X180200000Y-107950000D01*
G75*
G02*
X180450000Y-107700000I250000J0D01*
G01*
X181550000Y-107700000D01*
G75*
G02*
X181800000Y-107950000I0J-250000D01*
G01*
X181800000Y-110450000D01*
G75*
G02*
X181550000Y-110700000I-250000J0D01*
G01*
G37*
G36*
G01*
X181550000Y-106300000D02*
X180450000Y-106300000D01*
G75*
G02*
X180200000Y-106050000I0J250000D01*
G01*
X180200000Y-103550000D01*
G75*
G02*
X180450000Y-103300000I250000J0D01*
G01*
X181550000Y-103300000D01*
G75*
G02*
X181800000Y-103550000I0J-250000D01*
G01*
X181800000Y-106050000D01*
G75*
G02*
X181550000Y-106300000I-250000J0D01*
G01*
G37*
G36*
G01*
X171550000Y-110700000D02*
X170450000Y-110700000D01*
G75*
G02*
X170200000Y-110450000I0J250000D01*
G01*
X170200000Y-107950000D01*
G75*
G02*
X170450000Y-107700000I250000J0D01*
G01*
X171550000Y-107700000D01*
G75*
G02*
X171800000Y-107950000I0J-250000D01*
G01*
X171800000Y-110450000D01*
G75*
G02*
X171550000Y-110700000I-250000J0D01*
G01*
G37*
G36*
G01*
X171550000Y-106300000D02*
X170450000Y-106300000D01*
G75*
G02*
X170200000Y-106050000I0J250000D01*
G01*
X170200000Y-103550000D01*
G75*
G02*
X170450000Y-103300000I250000J0D01*
G01*
X171550000Y-103300000D01*
G75*
G02*
X171800000Y-103550000I0J-250000D01*
G01*
X171800000Y-106050000D01*
G75*
G02*
X171550000Y-106300000I-250000J0D01*
G01*
G37*
G36*
G01*
X161550000Y-110700000D02*
X160450000Y-110700000D01*
G75*
G02*
X160200000Y-110450000I0J250000D01*
G01*
X160200000Y-107950000D01*
G75*
G02*
X160450000Y-107700000I250000J0D01*
G01*
X161550000Y-107700000D01*
G75*
G02*
X161800000Y-107950000I0J-250000D01*
G01*
X161800000Y-110450000D01*
G75*
G02*
X161550000Y-110700000I-250000J0D01*
G01*
G37*
G36*
G01*
X161550000Y-106300000D02*
X160450000Y-106300000D01*
G75*
G02*
X160200000Y-106050000I0J250000D01*
G01*
X160200000Y-103550000D01*
G75*
G02*
X160450000Y-103300000I250000J0D01*
G01*
X161550000Y-103300000D01*
G75*
G02*
X161800000Y-103550000I0J-250000D01*
G01*
X161800000Y-106050000D01*
G75*
G02*
X161550000Y-106300000I-250000J0D01*
G01*
G37*
G36*
G01*
X151550000Y-110700000D02*
X150450000Y-110700000D01*
G75*
G02*
X150200000Y-110450000I0J250000D01*
G01*
X150200000Y-107950000D01*
G75*
G02*
X150450000Y-107700000I250000J0D01*
G01*
X151550000Y-107700000D01*
G75*
G02*
X151800000Y-107950000I0J-250000D01*
G01*
X151800000Y-110450000D01*
G75*
G02*
X151550000Y-110700000I-250000J0D01*
G01*
G37*
G36*
G01*
X151550000Y-106300000D02*
X150450000Y-106300000D01*
G75*
G02*
X150200000Y-106050000I0J250000D01*
G01*
X150200000Y-103550000D01*
G75*
G02*
X150450000Y-103300000I250000J0D01*
G01*
X151550000Y-103300000D01*
G75*
G02*
X151800000Y-103550000I0J-250000D01*
G01*
X151800000Y-106050000D01*
G75*
G02*
X151550000Y-106300000I-250000J0D01*
G01*
G37*
G36*
G01*
X141550000Y-110700000D02*
X140450000Y-110700000D01*
G75*
G02*
X140200000Y-110450000I0J250000D01*
G01*
X140200000Y-107950000D01*
G75*
G02*
X140450000Y-107700000I250000J0D01*
G01*
X141550000Y-107700000D01*
G75*
G02*
X141800000Y-107950000I0J-250000D01*
G01*
X141800000Y-110450000D01*
G75*
G02*
X141550000Y-110700000I-250000J0D01*
G01*
G37*
G36*
G01*
X141550000Y-106300000D02*
X140450000Y-106300000D01*
G75*
G02*
X140200000Y-106050000I0J250000D01*
G01*
X140200000Y-103550000D01*
G75*
G02*
X140450000Y-103300000I250000J0D01*
G01*
X141550000Y-103300000D01*
G75*
G02*
X141800000Y-103550000I0J-250000D01*
G01*
X141800000Y-106050000D01*
G75*
G02*
X141550000Y-106300000I-250000J0D01*
G01*
G37*
G36*
G01*
X131550000Y-110700000D02*
X130450000Y-110700000D01*
G75*
G02*
X130200000Y-110450000I0J250000D01*
G01*
X130200000Y-107950000D01*
G75*
G02*
X130450000Y-107700000I250000J0D01*
G01*
X131550000Y-107700000D01*
G75*
G02*
X131800000Y-107950000I0J-250000D01*
G01*
X131800000Y-110450000D01*
G75*
G02*
X131550000Y-110700000I-250000J0D01*
G01*
G37*
G36*
G01*
X131550000Y-106300000D02*
X130450000Y-106300000D01*
G75*
G02*
X130200000Y-106050000I0J250000D01*
G01*
X130200000Y-103550000D01*
G75*
G02*
X130450000Y-103300000I250000J0D01*
G01*
X131550000Y-103300000D01*
G75*
G02*
X131800000Y-103550000I0J-250000D01*
G01*
X131800000Y-106050000D01*
G75*
G02*
X131550000Y-106300000I-250000J0D01*
G01*
G37*
G36*
G01*
X121550000Y-110700000D02*
X120450000Y-110700000D01*
G75*
G02*
X120200000Y-110450000I0J250000D01*
G01*
X120200000Y-107950000D01*
G75*
G02*
X120450000Y-107700000I250000J0D01*
G01*
X121550000Y-107700000D01*
G75*
G02*
X121800000Y-107950000I0J-250000D01*
G01*
X121800000Y-110450000D01*
G75*
G02*
X121550000Y-110700000I-250000J0D01*
G01*
G37*
G36*
G01*
X121550000Y-106300000D02*
X120450000Y-106300000D01*
G75*
G02*
X120200000Y-106050000I0J250000D01*
G01*
X120200000Y-103550000D01*
G75*
G02*
X120450000Y-103300000I250000J0D01*
G01*
X121550000Y-103300000D01*
G75*
G02*
X121800000Y-103550000I0J-250000D01*
G01*
X121800000Y-106050000D01*
G75*
G02*
X121550000Y-106300000I-250000J0D01*
G01*
G37*
G36*
G01*
X111550000Y-110700000D02*
X110450000Y-110700000D01*
G75*
G02*
X110200000Y-110450000I0J250000D01*
G01*
X110200000Y-107950000D01*
G75*
G02*
X110450000Y-107700000I250000J0D01*
G01*
X111550000Y-107700000D01*
G75*
G02*
X111800000Y-107950000I0J-250000D01*
G01*
X111800000Y-110450000D01*
G75*
G02*
X111550000Y-110700000I-250000J0D01*
G01*
G37*
G36*
G01*
X111550000Y-106300000D02*
X110450000Y-106300000D01*
G75*
G02*
X110200000Y-106050000I0J250000D01*
G01*
X110200000Y-103550000D01*
G75*
G02*
X110450000Y-103300000I250000J0D01*
G01*
X111550000Y-103300000D01*
G75*
G02*
X111800000Y-103550000I0J-250000D01*
G01*
X111800000Y-106050000D01*
G75*
G02*
X111550000Y-106300000I-250000J0D01*
G01*
G37*
G36*
G01*
X191550000Y-114300000D02*
X190450000Y-114300000D01*
G75*
G02*
X190200000Y-114050000I0J250000D01*
G01*
X190200000Y-111550000D01*
G75*
G02*
X190450000Y-111300000I250000J0D01*
G01*
X191550000Y-111300000D01*
G75*
G02*
X191800000Y-111550000I0J-250000D01*
G01*
X191800000Y-114050000D01*
G75*
G02*
X191550000Y-114300000I-250000J0D01*
G01*
G37*
G36*
G01*
X191550000Y-118700000D02*
X190450000Y-118700000D01*
G75*
G02*
X190200000Y-118450000I0J250000D01*
G01*
X190200000Y-115950000D01*
G75*
G02*
X190450000Y-115700000I250000J0D01*
G01*
X191550000Y-115700000D01*
G75*
G02*
X191800000Y-115950000I0J-250000D01*
G01*
X191800000Y-118450000D01*
G75*
G02*
X191550000Y-118700000I-250000J0D01*
G01*
G37*
G36*
G01*
X181550000Y-114300000D02*
X180450000Y-114300000D01*
G75*
G02*
X180200000Y-114050000I0J250000D01*
G01*
X180200000Y-111550000D01*
G75*
G02*
X180450000Y-111300000I250000J0D01*
G01*
X181550000Y-111300000D01*
G75*
G02*
X181800000Y-111550000I0J-250000D01*
G01*
X181800000Y-114050000D01*
G75*
G02*
X181550000Y-114300000I-250000J0D01*
G01*
G37*
G36*
G01*
X181550000Y-118700000D02*
X180450000Y-118700000D01*
G75*
G02*
X180200000Y-118450000I0J250000D01*
G01*
X180200000Y-115950000D01*
G75*
G02*
X180450000Y-115700000I250000J0D01*
G01*
X181550000Y-115700000D01*
G75*
G02*
X181800000Y-115950000I0J-250000D01*
G01*
X181800000Y-118450000D01*
G75*
G02*
X181550000Y-118700000I-250000J0D01*
G01*
G37*
G36*
G01*
X171550000Y-114300000D02*
X170450000Y-114300000D01*
G75*
G02*
X170200000Y-114050000I0J250000D01*
G01*
X170200000Y-111550000D01*
G75*
G02*
X170450000Y-111300000I250000J0D01*
G01*
X171550000Y-111300000D01*
G75*
G02*
X171800000Y-111550000I0J-250000D01*
G01*
X171800000Y-114050000D01*
G75*
G02*
X171550000Y-114300000I-250000J0D01*
G01*
G37*
G36*
G01*
X171550000Y-118700000D02*
X170450000Y-118700000D01*
G75*
G02*
X170200000Y-118450000I0J250000D01*
G01*
X170200000Y-115950000D01*
G75*
G02*
X170450000Y-115700000I250000J0D01*
G01*
X171550000Y-115700000D01*
G75*
G02*
X171800000Y-115950000I0J-250000D01*
G01*
X171800000Y-118450000D01*
G75*
G02*
X171550000Y-118700000I-250000J0D01*
G01*
G37*
G36*
G01*
X161550000Y-114300000D02*
X160450000Y-114300000D01*
G75*
G02*
X160200000Y-114050000I0J250000D01*
G01*
X160200000Y-111550000D01*
G75*
G02*
X160450000Y-111300000I250000J0D01*
G01*
X161550000Y-111300000D01*
G75*
G02*
X161800000Y-111550000I0J-250000D01*
G01*
X161800000Y-114050000D01*
G75*
G02*
X161550000Y-114300000I-250000J0D01*
G01*
G37*
G36*
G01*
X161550000Y-118700000D02*
X160450000Y-118700000D01*
G75*
G02*
X160200000Y-118450000I0J250000D01*
G01*
X160200000Y-115950000D01*
G75*
G02*
X160450000Y-115700000I250000J0D01*
G01*
X161550000Y-115700000D01*
G75*
G02*
X161800000Y-115950000I0J-250000D01*
G01*
X161800000Y-118450000D01*
G75*
G02*
X161550000Y-118700000I-250000J0D01*
G01*
G37*
G36*
G01*
X151550000Y-114300000D02*
X150450000Y-114300000D01*
G75*
G02*
X150200000Y-114050000I0J250000D01*
G01*
X150200000Y-111550000D01*
G75*
G02*
X150450000Y-111300000I250000J0D01*
G01*
X151550000Y-111300000D01*
G75*
G02*
X151800000Y-111550000I0J-250000D01*
G01*
X151800000Y-114050000D01*
G75*
G02*
X151550000Y-114300000I-250000J0D01*
G01*
G37*
G36*
G01*
X151550000Y-118700000D02*
X150450000Y-118700000D01*
G75*
G02*
X150200000Y-118450000I0J250000D01*
G01*
X150200000Y-115950000D01*
G75*
G02*
X150450000Y-115700000I250000J0D01*
G01*
X151550000Y-115700000D01*
G75*
G02*
X151800000Y-115950000I0J-250000D01*
G01*
X151800000Y-118450000D01*
G75*
G02*
X151550000Y-118700000I-250000J0D01*
G01*
G37*
G36*
G01*
X141550000Y-114300000D02*
X140450000Y-114300000D01*
G75*
G02*
X140200000Y-114050000I0J250000D01*
G01*
X140200000Y-111550000D01*
G75*
G02*
X140450000Y-111300000I250000J0D01*
G01*
X141550000Y-111300000D01*
G75*
G02*
X141800000Y-111550000I0J-250000D01*
G01*
X141800000Y-114050000D01*
G75*
G02*
X141550000Y-114300000I-250000J0D01*
G01*
G37*
G36*
G01*
X141550000Y-118700000D02*
X140450000Y-118700000D01*
G75*
G02*
X140200000Y-118450000I0J250000D01*
G01*
X140200000Y-115950000D01*
G75*
G02*
X140450000Y-115700000I250000J0D01*
G01*
X141550000Y-115700000D01*
G75*
G02*
X141800000Y-115950000I0J-250000D01*
G01*
X141800000Y-118450000D01*
G75*
G02*
X141550000Y-118700000I-250000J0D01*
G01*
G37*
G36*
G01*
X131550000Y-114300000D02*
X130450000Y-114300000D01*
G75*
G02*
X130200000Y-114050000I0J250000D01*
G01*
X130200000Y-111550000D01*
G75*
G02*
X130450000Y-111300000I250000J0D01*
G01*
X131550000Y-111300000D01*
G75*
G02*
X131800000Y-111550000I0J-250000D01*
G01*
X131800000Y-114050000D01*
G75*
G02*
X131550000Y-114300000I-250000J0D01*
G01*
G37*
G36*
G01*
X131550000Y-118700000D02*
X130450000Y-118700000D01*
G75*
G02*
X130200000Y-118450000I0J250000D01*
G01*
X130200000Y-115950000D01*
G75*
G02*
X130450000Y-115700000I250000J0D01*
G01*
X131550000Y-115700000D01*
G75*
G02*
X131800000Y-115950000I0J-250000D01*
G01*
X131800000Y-118450000D01*
G75*
G02*
X131550000Y-118700000I-250000J0D01*
G01*
G37*
G36*
G01*
X121550000Y-114300000D02*
X120450000Y-114300000D01*
G75*
G02*
X120200000Y-114050000I0J250000D01*
G01*
X120200000Y-111550000D01*
G75*
G02*
X120450000Y-111300000I250000J0D01*
G01*
X121550000Y-111300000D01*
G75*
G02*
X121800000Y-111550000I0J-250000D01*
G01*
X121800000Y-114050000D01*
G75*
G02*
X121550000Y-114300000I-250000J0D01*
G01*
G37*
G36*
G01*
X121550000Y-118700000D02*
X120450000Y-118700000D01*
G75*
G02*
X120200000Y-118450000I0J250000D01*
G01*
X120200000Y-115950000D01*
G75*
G02*
X120450000Y-115700000I250000J0D01*
G01*
X121550000Y-115700000D01*
G75*
G02*
X121800000Y-115950000I0J-250000D01*
G01*
X121800000Y-118450000D01*
G75*
G02*
X121550000Y-118700000I-250000J0D01*
G01*
G37*
G36*
G01*
X111550000Y-114300000D02*
X110450000Y-114300000D01*
G75*
G02*
X110200000Y-114050000I0J250000D01*
G01*
X110200000Y-111550000D01*
G75*
G02*
X110450000Y-111300000I250000J0D01*
G01*
X111550000Y-111300000D01*
G75*
G02*
X111800000Y-111550000I0J-250000D01*
G01*
X111800000Y-114050000D01*
G75*
G02*
X111550000Y-114300000I-250000J0D01*
G01*
G37*
G36*
G01*
X111550000Y-118700000D02*
X110450000Y-118700000D01*
G75*
G02*
X110200000Y-118450000I0J250000D01*
G01*
X110200000Y-115950000D01*
G75*
G02*
X110450000Y-115700000I250000J0D01*
G01*
X111550000Y-115700000D01*
G75*
G02*
X111800000Y-115950000I0J-250000D01*
G01*
X111800000Y-118450000D01*
G75*
G02*
X111550000Y-118700000I-250000J0D01*
G01*
G37*
G36*
G01*
X192874999Y-75400000D02*
X194125001Y-75400000D01*
G75*
G02*
X194375000Y-75649999I0J-249999D01*
G01*
X194375000Y-76450001D01*
G75*
G02*
X194125001Y-76700000I-249999J0D01*
G01*
X192874999Y-76700000D01*
G75*
G02*
X192625000Y-76450001I0J249999D01*
G01*
X192625000Y-75649999D01*
G75*
G02*
X192874999Y-75400000I249999J0D01*
G01*
G37*
G36*
G01*
X192874999Y-72300000D02*
X194125001Y-72300000D01*
G75*
G02*
X194375000Y-72549999I0J-249999D01*
G01*
X194375000Y-73350001D01*
G75*
G02*
X194125001Y-73600000I-249999J0D01*
G01*
X192874999Y-73600000D01*
G75*
G02*
X192625000Y-73350001I0J249999D01*
G01*
X192625000Y-72549999D01*
G75*
G02*
X192874999Y-72300000I249999J0D01*
G01*
G37*
G36*
G01*
X182874999Y-75400000D02*
X184125001Y-75400000D01*
G75*
G02*
X184375000Y-75649999I0J-249999D01*
G01*
X184375000Y-76450001D01*
G75*
G02*
X184125001Y-76700000I-249999J0D01*
G01*
X182874999Y-76700000D01*
G75*
G02*
X182625000Y-76450001I0J249999D01*
G01*
X182625000Y-75649999D01*
G75*
G02*
X182874999Y-75400000I249999J0D01*
G01*
G37*
G36*
G01*
X182874999Y-72300000D02*
X184125001Y-72300000D01*
G75*
G02*
X184375000Y-72549999I0J-249999D01*
G01*
X184375000Y-73350001D01*
G75*
G02*
X184125001Y-73600000I-249999J0D01*
G01*
X182874999Y-73600000D01*
G75*
G02*
X182625000Y-73350001I0J249999D01*
G01*
X182625000Y-72549999D01*
G75*
G02*
X182874999Y-72300000I249999J0D01*
G01*
G37*
G36*
G01*
X172874999Y-75400000D02*
X174125001Y-75400000D01*
G75*
G02*
X174375000Y-75649999I0J-249999D01*
G01*
X174375000Y-76450001D01*
G75*
G02*
X174125001Y-76700000I-249999J0D01*
G01*
X172874999Y-76700000D01*
G75*
G02*
X172625000Y-76450001I0J249999D01*
G01*
X172625000Y-75649999D01*
G75*
G02*
X172874999Y-75400000I249999J0D01*
G01*
G37*
G36*
G01*
X172874999Y-72300000D02*
X174125001Y-72300000D01*
G75*
G02*
X174375000Y-72549999I0J-249999D01*
G01*
X174375000Y-73350001D01*
G75*
G02*
X174125001Y-73600000I-249999J0D01*
G01*
X172874999Y-73600000D01*
G75*
G02*
X172625000Y-73350001I0J249999D01*
G01*
X172625000Y-72549999D01*
G75*
G02*
X172874999Y-72300000I249999J0D01*
G01*
G37*
G36*
G01*
X162874999Y-75400000D02*
X164125001Y-75400000D01*
G75*
G02*
X164375000Y-75649999I0J-249999D01*
G01*
X164375000Y-76450001D01*
G75*
G02*
X164125001Y-76700000I-249999J0D01*
G01*
X162874999Y-76700000D01*
G75*
G02*
X162625000Y-76450001I0J249999D01*
G01*
X162625000Y-75649999D01*
G75*
G02*
X162874999Y-75400000I249999J0D01*
G01*
G37*
G36*
G01*
X162874999Y-72300000D02*
X164125001Y-72300000D01*
G75*
G02*
X164375000Y-72549999I0J-249999D01*
G01*
X164375000Y-73350001D01*
G75*
G02*
X164125001Y-73600000I-249999J0D01*
G01*
X162874999Y-73600000D01*
G75*
G02*
X162625000Y-73350001I0J249999D01*
G01*
X162625000Y-72549999D01*
G75*
G02*
X162874999Y-72300000I249999J0D01*
G01*
G37*
G36*
G01*
X152874999Y-75400000D02*
X154125001Y-75400000D01*
G75*
G02*
X154375000Y-75649999I0J-249999D01*
G01*
X154375000Y-76450001D01*
G75*
G02*
X154125001Y-76700000I-249999J0D01*
G01*
X152874999Y-76700000D01*
G75*
G02*
X152625000Y-76450001I0J249999D01*
G01*
X152625000Y-75649999D01*
G75*
G02*
X152874999Y-75400000I249999J0D01*
G01*
G37*
G36*
G01*
X152874999Y-72300000D02*
X154125001Y-72300000D01*
G75*
G02*
X154375000Y-72549999I0J-249999D01*
G01*
X154375000Y-73350001D01*
G75*
G02*
X154125001Y-73600000I-249999J0D01*
G01*
X152874999Y-73600000D01*
G75*
G02*
X152625000Y-73350001I0J249999D01*
G01*
X152625000Y-72549999D01*
G75*
G02*
X152874999Y-72300000I249999J0D01*
G01*
G37*
G36*
G01*
X142874999Y-75400000D02*
X144125001Y-75400000D01*
G75*
G02*
X144375000Y-75649999I0J-249999D01*
G01*
X144375000Y-76450001D01*
G75*
G02*
X144125001Y-76700000I-249999J0D01*
G01*
X142874999Y-76700000D01*
G75*
G02*
X142625000Y-76450001I0J249999D01*
G01*
X142625000Y-75649999D01*
G75*
G02*
X142874999Y-75400000I249999J0D01*
G01*
G37*
G36*
G01*
X142874999Y-72300000D02*
X144125001Y-72300000D01*
G75*
G02*
X144375000Y-72549999I0J-249999D01*
G01*
X144375000Y-73350001D01*
G75*
G02*
X144125001Y-73600000I-249999J0D01*
G01*
X142874999Y-73600000D01*
G75*
G02*
X142625000Y-73350001I0J249999D01*
G01*
X142625000Y-72549999D01*
G75*
G02*
X142874999Y-72300000I249999J0D01*
G01*
G37*
G36*
G01*
X132874999Y-75400000D02*
X134125001Y-75400000D01*
G75*
G02*
X134375000Y-75649999I0J-249999D01*
G01*
X134375000Y-76450001D01*
G75*
G02*
X134125001Y-76700000I-249999J0D01*
G01*
X132874999Y-76700000D01*
G75*
G02*
X132625000Y-76450001I0J249999D01*
G01*
X132625000Y-75649999D01*
G75*
G02*
X132874999Y-75400000I249999J0D01*
G01*
G37*
G36*
G01*
X132874999Y-72300000D02*
X134125001Y-72300000D01*
G75*
G02*
X134375000Y-72549999I0J-249999D01*
G01*
X134375000Y-73350001D01*
G75*
G02*
X134125001Y-73600000I-249999J0D01*
G01*
X132874999Y-73600000D01*
G75*
G02*
X132625000Y-73350001I0J249999D01*
G01*
X132625000Y-72549999D01*
G75*
G02*
X132874999Y-72300000I249999J0D01*
G01*
G37*
G36*
G01*
X122874999Y-75400000D02*
X124125001Y-75400000D01*
G75*
G02*
X124375000Y-75649999I0J-249999D01*
G01*
X124375000Y-76450001D01*
G75*
G02*
X124125001Y-76700000I-249999J0D01*
G01*
X122874999Y-76700000D01*
G75*
G02*
X122625000Y-76450001I0J249999D01*
G01*
X122625000Y-75649999D01*
G75*
G02*
X122874999Y-75400000I249999J0D01*
G01*
G37*
G36*
G01*
X122874999Y-72300000D02*
X124125001Y-72300000D01*
G75*
G02*
X124375000Y-72549999I0J-249999D01*
G01*
X124375000Y-73350001D01*
G75*
G02*
X124125001Y-73600000I-249999J0D01*
G01*
X122874999Y-73600000D01*
G75*
G02*
X122625000Y-73350001I0J249999D01*
G01*
X122625000Y-72549999D01*
G75*
G02*
X122874999Y-72300000I249999J0D01*
G01*
G37*
G36*
G01*
X112874999Y-75400000D02*
X114125001Y-75400000D01*
G75*
G02*
X114375000Y-75649999I0J-249999D01*
G01*
X114375000Y-76450001D01*
G75*
G02*
X114125001Y-76700000I-249999J0D01*
G01*
X112874999Y-76700000D01*
G75*
G02*
X112625000Y-76450001I0J249999D01*
G01*
X112625000Y-75649999D01*
G75*
G02*
X112874999Y-75400000I249999J0D01*
G01*
G37*
G36*
G01*
X112874999Y-72300000D02*
X114125001Y-72300000D01*
G75*
G02*
X114375000Y-72549999I0J-249999D01*
G01*
X114375000Y-73350001D01*
G75*
G02*
X114125001Y-73600000I-249999J0D01*
G01*
X112874999Y-73600000D01*
G75*
G02*
X112625000Y-73350001I0J249999D01*
G01*
X112625000Y-72549999D01*
G75*
G02*
X112874999Y-72300000I249999J0D01*
G01*
G37*
G36*
G01*
X187874999Y-72300000D02*
X189125001Y-72300000D01*
G75*
G02*
X189375000Y-72549999I0J-249999D01*
G01*
X189375000Y-73350001D01*
G75*
G02*
X189125001Y-73600000I-249999J0D01*
G01*
X187874999Y-73600000D01*
G75*
G02*
X187625000Y-73350001I0J249999D01*
G01*
X187625000Y-72549999D01*
G75*
G02*
X187874999Y-72300000I249999J0D01*
G01*
G37*
G36*
G01*
X187874999Y-75400000D02*
X189125001Y-75400000D01*
G75*
G02*
X189375000Y-75649999I0J-249999D01*
G01*
X189375000Y-76450001D01*
G75*
G02*
X189125001Y-76700000I-249999J0D01*
G01*
X187874999Y-76700000D01*
G75*
G02*
X187625000Y-76450001I0J249999D01*
G01*
X187625000Y-75649999D01*
G75*
G02*
X187874999Y-75400000I249999J0D01*
G01*
G37*
G36*
G01*
X177874999Y-72300000D02*
X179125001Y-72300000D01*
G75*
G02*
X179375000Y-72549999I0J-249999D01*
G01*
X179375000Y-73350001D01*
G75*
G02*
X179125001Y-73600000I-249999J0D01*
G01*
X177874999Y-73600000D01*
G75*
G02*
X177625000Y-73350001I0J249999D01*
G01*
X177625000Y-72549999D01*
G75*
G02*
X177874999Y-72300000I249999J0D01*
G01*
G37*
G36*
G01*
X177874999Y-75400000D02*
X179125001Y-75400000D01*
G75*
G02*
X179375000Y-75649999I0J-249999D01*
G01*
X179375000Y-76450001D01*
G75*
G02*
X179125001Y-76700000I-249999J0D01*
G01*
X177874999Y-76700000D01*
G75*
G02*
X177625000Y-76450001I0J249999D01*
G01*
X177625000Y-75649999D01*
G75*
G02*
X177874999Y-75400000I249999J0D01*
G01*
G37*
G36*
G01*
X167874999Y-72300000D02*
X169125001Y-72300000D01*
G75*
G02*
X169375000Y-72549999I0J-249999D01*
G01*
X169375000Y-73350001D01*
G75*
G02*
X169125001Y-73600000I-249999J0D01*
G01*
X167874999Y-73600000D01*
G75*
G02*
X167625000Y-73350001I0J249999D01*
G01*
X167625000Y-72549999D01*
G75*
G02*
X167874999Y-72300000I249999J0D01*
G01*
G37*
G36*
G01*
X167874999Y-75400000D02*
X169125001Y-75400000D01*
G75*
G02*
X169375000Y-75649999I0J-249999D01*
G01*
X169375000Y-76450001D01*
G75*
G02*
X169125001Y-76700000I-249999J0D01*
G01*
X167874999Y-76700000D01*
G75*
G02*
X167625000Y-76450001I0J249999D01*
G01*
X167625000Y-75649999D01*
G75*
G02*
X167874999Y-75400000I249999J0D01*
G01*
G37*
G36*
G01*
X157874999Y-72300000D02*
X159125001Y-72300000D01*
G75*
G02*
X159375000Y-72549999I0J-249999D01*
G01*
X159375000Y-73350001D01*
G75*
G02*
X159125001Y-73600000I-249999J0D01*
G01*
X157874999Y-73600000D01*
G75*
G02*
X157625000Y-73350001I0J249999D01*
G01*
X157625000Y-72549999D01*
G75*
G02*
X157874999Y-72300000I249999J0D01*
G01*
G37*
G36*
G01*
X157874999Y-75400000D02*
X159125001Y-75400000D01*
G75*
G02*
X159375000Y-75649999I0J-249999D01*
G01*
X159375000Y-76450001D01*
G75*
G02*
X159125001Y-76700000I-249999J0D01*
G01*
X157874999Y-76700000D01*
G75*
G02*
X157625000Y-76450001I0J249999D01*
G01*
X157625000Y-75649999D01*
G75*
G02*
X157874999Y-75400000I249999J0D01*
G01*
G37*
G36*
G01*
X147874999Y-72300000D02*
X149125001Y-72300000D01*
G75*
G02*
X149375000Y-72549999I0J-249999D01*
G01*
X149375000Y-73350001D01*
G75*
G02*
X149125001Y-73600000I-249999J0D01*
G01*
X147874999Y-73600000D01*
G75*
G02*
X147625000Y-73350001I0J249999D01*
G01*
X147625000Y-72549999D01*
G75*
G02*
X147874999Y-72300000I249999J0D01*
G01*
G37*
G36*
G01*
X147874999Y-75400000D02*
X149125001Y-75400000D01*
G75*
G02*
X149375000Y-75649999I0J-249999D01*
G01*
X149375000Y-76450001D01*
G75*
G02*
X149125001Y-76700000I-249999J0D01*
G01*
X147874999Y-76700000D01*
G75*
G02*
X147625000Y-76450001I0J249999D01*
G01*
X147625000Y-75649999D01*
G75*
G02*
X147874999Y-75400000I249999J0D01*
G01*
G37*
G36*
G01*
X137874999Y-72300000D02*
X139125001Y-72300000D01*
G75*
G02*
X139375000Y-72549999I0J-249999D01*
G01*
X139375000Y-73350001D01*
G75*
G02*
X139125001Y-73600000I-249999J0D01*
G01*
X137874999Y-73600000D01*
G75*
G02*
X137625000Y-73350001I0J249999D01*
G01*
X137625000Y-72549999D01*
G75*
G02*
X137874999Y-72300000I249999J0D01*
G01*
G37*
G36*
G01*
X137874999Y-75400000D02*
X139125001Y-75400000D01*
G75*
G02*
X139375000Y-75649999I0J-249999D01*
G01*
X139375000Y-76450001D01*
G75*
G02*
X139125001Y-76700000I-249999J0D01*
G01*
X137874999Y-76700000D01*
G75*
G02*
X137625000Y-76450001I0J249999D01*
G01*
X137625000Y-75649999D01*
G75*
G02*
X137874999Y-75400000I249999J0D01*
G01*
G37*
G36*
G01*
X127874999Y-72300000D02*
X129125001Y-72300000D01*
G75*
G02*
X129375000Y-72549999I0J-249999D01*
G01*
X129375000Y-73350001D01*
G75*
G02*
X129125001Y-73600000I-249999J0D01*
G01*
X127874999Y-73600000D01*
G75*
G02*
X127625000Y-73350001I0J249999D01*
G01*
X127625000Y-72549999D01*
G75*
G02*
X127874999Y-72300000I249999J0D01*
G01*
G37*
G36*
G01*
X127874999Y-75400000D02*
X129125001Y-75400000D01*
G75*
G02*
X129375000Y-75649999I0J-249999D01*
G01*
X129375000Y-76450001D01*
G75*
G02*
X129125001Y-76700000I-249999J0D01*
G01*
X127874999Y-76700000D01*
G75*
G02*
X127625000Y-76450001I0J249999D01*
G01*
X127625000Y-75649999D01*
G75*
G02*
X127874999Y-75400000I249999J0D01*
G01*
G37*
G36*
G01*
X117874999Y-72300000D02*
X119125001Y-72300000D01*
G75*
G02*
X119375000Y-72549999I0J-249999D01*
G01*
X119375000Y-73350001D01*
G75*
G02*
X119125001Y-73600000I-249999J0D01*
G01*
X117874999Y-73600000D01*
G75*
G02*
X117625000Y-73350001I0J249999D01*
G01*
X117625000Y-72549999D01*
G75*
G02*
X117874999Y-72300000I249999J0D01*
G01*
G37*
G36*
G01*
X117874999Y-75400000D02*
X119125001Y-75400000D01*
G75*
G02*
X119375000Y-75649999I0J-249999D01*
G01*
X119375000Y-76450001D01*
G75*
G02*
X119125001Y-76700000I-249999J0D01*
G01*
X117874999Y-76700000D01*
G75*
G02*
X117625000Y-76450001I0J249999D01*
G01*
X117625000Y-75649999D01*
G75*
G02*
X117874999Y-75400000I249999J0D01*
G01*
G37*
G36*
G01*
X107874999Y-72300000D02*
X109125001Y-72300000D01*
G75*
G02*
X109375000Y-72549999I0J-249999D01*
G01*
X109375000Y-73350001D01*
G75*
G02*
X109125001Y-73600000I-249999J0D01*
G01*
X107874999Y-73600000D01*
G75*
G02*
X107625000Y-73350001I0J249999D01*
G01*
X107625000Y-72549999D01*
G75*
G02*
X107874999Y-72300000I249999J0D01*
G01*
G37*
G36*
G01*
X107874999Y-75400000D02*
X109125001Y-75400000D01*
G75*
G02*
X109375000Y-75649999I0J-249999D01*
G01*
X109375000Y-76450001D01*
G75*
G02*
X109125001Y-76700000I-249999J0D01*
G01*
X107874999Y-76700000D01*
G75*
G02*
X107625000Y-76450001I0J249999D01*
G01*
X107625000Y-75649999D01*
G75*
G02*
X107874999Y-75400000I249999J0D01*
G01*
G37*
G36*
G01*
X191650002Y-76725000D02*
X190349998Y-76725000D01*
G75*
G02*
X190100000Y-76475002I0J249998D01*
G01*
X190100000Y-75649998D01*
G75*
G02*
X190349998Y-75400000I249998J0D01*
G01*
X191650002Y-75400000D01*
G75*
G02*
X191900000Y-75649998I0J-249998D01*
G01*
X191900000Y-76475002D01*
G75*
G02*
X191650002Y-76725000I-249998J0D01*
G01*
G37*
G36*
G01*
X191650002Y-73600000D02*
X190349998Y-73600000D01*
G75*
G02*
X190100000Y-73350002I0J249998D01*
G01*
X190100000Y-72524998D01*
G75*
G02*
X190349998Y-72275000I249998J0D01*
G01*
X191650002Y-72275000D01*
G75*
G02*
X191900000Y-72524998I0J-249998D01*
G01*
X191900000Y-73350002D01*
G75*
G02*
X191650002Y-73600000I-249998J0D01*
G01*
G37*
G36*
G01*
X181650002Y-76725000D02*
X180349998Y-76725000D01*
G75*
G02*
X180100000Y-76475002I0J249998D01*
G01*
X180100000Y-75649998D01*
G75*
G02*
X180349998Y-75400000I249998J0D01*
G01*
X181650002Y-75400000D01*
G75*
G02*
X181900000Y-75649998I0J-249998D01*
G01*
X181900000Y-76475002D01*
G75*
G02*
X181650002Y-76725000I-249998J0D01*
G01*
G37*
G36*
G01*
X181650002Y-73600000D02*
X180349998Y-73600000D01*
G75*
G02*
X180100000Y-73350002I0J249998D01*
G01*
X180100000Y-72524998D01*
G75*
G02*
X180349998Y-72275000I249998J0D01*
G01*
X181650002Y-72275000D01*
G75*
G02*
X181900000Y-72524998I0J-249998D01*
G01*
X181900000Y-73350002D01*
G75*
G02*
X181650002Y-73600000I-249998J0D01*
G01*
G37*
G36*
G01*
X171650002Y-76725000D02*
X170349998Y-76725000D01*
G75*
G02*
X170100000Y-76475002I0J249998D01*
G01*
X170100000Y-75649998D01*
G75*
G02*
X170349998Y-75400000I249998J0D01*
G01*
X171650002Y-75400000D01*
G75*
G02*
X171900000Y-75649998I0J-249998D01*
G01*
X171900000Y-76475002D01*
G75*
G02*
X171650002Y-76725000I-249998J0D01*
G01*
G37*
G36*
G01*
X171650002Y-73600000D02*
X170349998Y-73600000D01*
G75*
G02*
X170100000Y-73350002I0J249998D01*
G01*
X170100000Y-72524998D01*
G75*
G02*
X170349998Y-72275000I249998J0D01*
G01*
X171650002Y-72275000D01*
G75*
G02*
X171900000Y-72524998I0J-249998D01*
G01*
X171900000Y-73350002D01*
G75*
G02*
X171650002Y-73600000I-249998J0D01*
G01*
G37*
G36*
G01*
X161650002Y-76725000D02*
X160349998Y-76725000D01*
G75*
G02*
X160100000Y-76475002I0J249998D01*
G01*
X160100000Y-75649998D01*
G75*
G02*
X160349998Y-75400000I249998J0D01*
G01*
X161650002Y-75400000D01*
G75*
G02*
X161900000Y-75649998I0J-249998D01*
G01*
X161900000Y-76475002D01*
G75*
G02*
X161650002Y-76725000I-249998J0D01*
G01*
G37*
G36*
G01*
X161650002Y-73600000D02*
X160349998Y-73600000D01*
G75*
G02*
X160100000Y-73350002I0J249998D01*
G01*
X160100000Y-72524998D01*
G75*
G02*
X160349998Y-72275000I249998J0D01*
G01*
X161650002Y-72275000D01*
G75*
G02*
X161900000Y-72524998I0J-249998D01*
G01*
X161900000Y-73350002D01*
G75*
G02*
X161650002Y-73600000I-249998J0D01*
G01*
G37*
G36*
G01*
X151650002Y-76725000D02*
X150349998Y-76725000D01*
G75*
G02*
X150100000Y-76475002I0J249998D01*
G01*
X150100000Y-75649998D01*
G75*
G02*
X150349998Y-75400000I249998J0D01*
G01*
X151650002Y-75400000D01*
G75*
G02*
X151900000Y-75649998I0J-249998D01*
G01*
X151900000Y-76475002D01*
G75*
G02*
X151650002Y-76725000I-249998J0D01*
G01*
G37*
G36*
G01*
X151650002Y-73600000D02*
X150349998Y-73600000D01*
G75*
G02*
X150100000Y-73350002I0J249998D01*
G01*
X150100000Y-72524998D01*
G75*
G02*
X150349998Y-72275000I249998J0D01*
G01*
X151650002Y-72275000D01*
G75*
G02*
X151900000Y-72524998I0J-249998D01*
G01*
X151900000Y-73350002D01*
G75*
G02*
X151650002Y-73600000I-249998J0D01*
G01*
G37*
G36*
G01*
X141650002Y-76725000D02*
X140349998Y-76725000D01*
G75*
G02*
X140100000Y-76475002I0J249998D01*
G01*
X140100000Y-75649998D01*
G75*
G02*
X140349998Y-75400000I249998J0D01*
G01*
X141650002Y-75400000D01*
G75*
G02*
X141900000Y-75649998I0J-249998D01*
G01*
X141900000Y-76475002D01*
G75*
G02*
X141650002Y-76725000I-249998J0D01*
G01*
G37*
G36*
G01*
X141650002Y-73600000D02*
X140349998Y-73600000D01*
G75*
G02*
X140100000Y-73350002I0J249998D01*
G01*
X140100000Y-72524998D01*
G75*
G02*
X140349998Y-72275000I249998J0D01*
G01*
X141650002Y-72275000D01*
G75*
G02*
X141900000Y-72524998I0J-249998D01*
G01*
X141900000Y-73350002D01*
G75*
G02*
X141650002Y-73600000I-249998J0D01*
G01*
G37*
G36*
G01*
X131650002Y-76725000D02*
X130349998Y-76725000D01*
G75*
G02*
X130100000Y-76475002I0J249998D01*
G01*
X130100000Y-75649998D01*
G75*
G02*
X130349998Y-75400000I249998J0D01*
G01*
X131650002Y-75400000D01*
G75*
G02*
X131900000Y-75649998I0J-249998D01*
G01*
X131900000Y-76475002D01*
G75*
G02*
X131650002Y-76725000I-249998J0D01*
G01*
G37*
G36*
G01*
X131650002Y-73600000D02*
X130349998Y-73600000D01*
G75*
G02*
X130100000Y-73350002I0J249998D01*
G01*
X130100000Y-72524998D01*
G75*
G02*
X130349998Y-72275000I249998J0D01*
G01*
X131650002Y-72275000D01*
G75*
G02*
X131900000Y-72524998I0J-249998D01*
G01*
X131900000Y-73350002D01*
G75*
G02*
X131650002Y-73600000I-249998J0D01*
G01*
G37*
G36*
G01*
X121650002Y-76725000D02*
X120349998Y-76725000D01*
G75*
G02*
X120100000Y-76475002I0J249998D01*
G01*
X120100000Y-75649998D01*
G75*
G02*
X120349998Y-75400000I249998J0D01*
G01*
X121650002Y-75400000D01*
G75*
G02*
X121900000Y-75649998I0J-249998D01*
G01*
X121900000Y-76475002D01*
G75*
G02*
X121650002Y-76725000I-249998J0D01*
G01*
G37*
G36*
G01*
X121650002Y-73600000D02*
X120349998Y-73600000D01*
G75*
G02*
X120100000Y-73350002I0J249998D01*
G01*
X120100000Y-72524998D01*
G75*
G02*
X120349998Y-72275000I249998J0D01*
G01*
X121650002Y-72275000D01*
G75*
G02*
X121900000Y-72524998I0J-249998D01*
G01*
X121900000Y-73350002D01*
G75*
G02*
X121650002Y-73600000I-249998J0D01*
G01*
G37*
G36*
G01*
X111650002Y-76725000D02*
X110349998Y-76725000D01*
G75*
G02*
X110100000Y-76475002I0J249998D01*
G01*
X110100000Y-75649998D01*
G75*
G02*
X110349998Y-75400000I249998J0D01*
G01*
X111650002Y-75400000D01*
G75*
G02*
X111900000Y-75649998I0J-249998D01*
G01*
X111900000Y-76475002D01*
G75*
G02*
X111650002Y-76725000I-249998J0D01*
G01*
G37*
G36*
G01*
X111650002Y-73600000D02*
X110349998Y-73600000D01*
G75*
G02*
X110100000Y-73350002I0J249998D01*
G01*
X110100000Y-72524998D01*
G75*
G02*
X110349998Y-72275000I249998J0D01*
G01*
X111650002Y-72275000D01*
G75*
G02*
X111900000Y-72524998I0J-249998D01*
G01*
X111900000Y-73350002D01*
G75*
G02*
X111650002Y-73600000I-249998J0D01*
G01*
G37*
D11*
X193500000Y-69500000D03*
X183500000Y-69500000D03*
X173500000Y-69500000D03*
X163500000Y-69500000D03*
X153500000Y-69500000D03*
X143500000Y-69500000D03*
X133500000Y-69500000D03*
X123500000Y-69500000D03*
X113500000Y-69500000D03*
X188500000Y-69500000D03*
X178500000Y-69500000D03*
X168500000Y-69500000D03*
X158500000Y-69500000D03*
X148500000Y-69500000D03*
X138500000Y-69500000D03*
X128500000Y-69500000D03*
X118500000Y-69500000D03*
X108500000Y-69500000D03*
X193500000Y-124000000D03*
X183500000Y-124000000D03*
X173500000Y-124000000D03*
X163500000Y-124000000D03*
X153500000Y-124000000D03*
X143500000Y-124000000D03*
X133500000Y-124000000D03*
X123500000Y-124000000D03*
X113500000Y-124000000D03*
G36*
G01*
X189162500Y-119849998D02*
X189162500Y-121150002D01*
G75*
G02*
X188912502Y-121400000I-249998J0D01*
G01*
X188087498Y-121400000D01*
G75*
G02*
X187837500Y-121150002I0J249998D01*
G01*
X187837500Y-119849998D01*
G75*
G02*
X188087498Y-119600000I249998J0D01*
G01*
X188912502Y-119600000D01*
G75*
G02*
X189162500Y-119849998I0J-249998D01*
G01*
G37*
G36*
G01*
X192287500Y-119849998D02*
X192287500Y-121150002D01*
G75*
G02*
X192037502Y-121400000I-249998J0D01*
G01*
X191212498Y-121400000D01*
G75*
G02*
X190962500Y-121150002I0J249998D01*
G01*
X190962500Y-119849998D01*
G75*
G02*
X191212498Y-119600000I249998J0D01*
G01*
X192037502Y-119600000D01*
G75*
G02*
X192287500Y-119849998I0J-249998D01*
G01*
G37*
G36*
G01*
X179162500Y-119849998D02*
X179162500Y-121150002D01*
G75*
G02*
X178912502Y-121400000I-249998J0D01*
G01*
X178087498Y-121400000D01*
G75*
G02*
X177837500Y-121150002I0J249998D01*
G01*
X177837500Y-119849998D01*
G75*
G02*
X178087498Y-119600000I249998J0D01*
G01*
X178912502Y-119600000D01*
G75*
G02*
X179162500Y-119849998I0J-249998D01*
G01*
G37*
G36*
G01*
X182287500Y-119849998D02*
X182287500Y-121150002D01*
G75*
G02*
X182037502Y-121400000I-249998J0D01*
G01*
X181212498Y-121400000D01*
G75*
G02*
X180962500Y-121150002I0J249998D01*
G01*
X180962500Y-119849998D01*
G75*
G02*
X181212498Y-119600000I249998J0D01*
G01*
X182037502Y-119600000D01*
G75*
G02*
X182287500Y-119849998I0J-249998D01*
G01*
G37*
G36*
G01*
X169162500Y-119849998D02*
X169162500Y-121150002D01*
G75*
G02*
X168912502Y-121400000I-249998J0D01*
G01*
X168087498Y-121400000D01*
G75*
G02*
X167837500Y-121150002I0J249998D01*
G01*
X167837500Y-119849998D01*
G75*
G02*
X168087498Y-119600000I249998J0D01*
G01*
X168912502Y-119600000D01*
G75*
G02*
X169162500Y-119849998I0J-249998D01*
G01*
G37*
G36*
G01*
X172287500Y-119849998D02*
X172287500Y-121150002D01*
G75*
G02*
X172037502Y-121400000I-249998J0D01*
G01*
X171212498Y-121400000D01*
G75*
G02*
X170962500Y-121150002I0J249998D01*
G01*
X170962500Y-119849998D01*
G75*
G02*
X171212498Y-119600000I249998J0D01*
G01*
X172037502Y-119600000D01*
G75*
G02*
X172287500Y-119849998I0J-249998D01*
G01*
G37*
G36*
G01*
X159162500Y-119849998D02*
X159162500Y-121150002D01*
G75*
G02*
X158912502Y-121400000I-249998J0D01*
G01*
X158087498Y-121400000D01*
G75*
G02*
X157837500Y-121150002I0J249998D01*
G01*
X157837500Y-119849998D01*
G75*
G02*
X158087498Y-119600000I249998J0D01*
G01*
X158912502Y-119600000D01*
G75*
G02*
X159162500Y-119849998I0J-249998D01*
G01*
G37*
G36*
G01*
X162287500Y-119849998D02*
X162287500Y-121150002D01*
G75*
G02*
X162037502Y-121400000I-249998J0D01*
G01*
X161212498Y-121400000D01*
G75*
G02*
X160962500Y-121150002I0J249998D01*
G01*
X160962500Y-119849998D01*
G75*
G02*
X161212498Y-119600000I249998J0D01*
G01*
X162037502Y-119600000D01*
G75*
G02*
X162287500Y-119849998I0J-249998D01*
G01*
G37*
G36*
G01*
X149162500Y-119849998D02*
X149162500Y-121150002D01*
G75*
G02*
X148912502Y-121400000I-249998J0D01*
G01*
X148087498Y-121400000D01*
G75*
G02*
X147837500Y-121150002I0J249998D01*
G01*
X147837500Y-119849998D01*
G75*
G02*
X148087498Y-119600000I249998J0D01*
G01*
X148912502Y-119600000D01*
G75*
G02*
X149162500Y-119849998I0J-249998D01*
G01*
G37*
G36*
G01*
X152287500Y-119849998D02*
X152287500Y-121150002D01*
G75*
G02*
X152037502Y-121400000I-249998J0D01*
G01*
X151212498Y-121400000D01*
G75*
G02*
X150962500Y-121150002I0J249998D01*
G01*
X150962500Y-119849998D01*
G75*
G02*
X151212498Y-119600000I249998J0D01*
G01*
X152037502Y-119600000D01*
G75*
G02*
X152287500Y-119849998I0J-249998D01*
G01*
G37*
G36*
G01*
X139162500Y-119849998D02*
X139162500Y-121150002D01*
G75*
G02*
X138912502Y-121400000I-249998J0D01*
G01*
X138087498Y-121400000D01*
G75*
G02*
X137837500Y-121150002I0J249998D01*
G01*
X137837500Y-119849998D01*
G75*
G02*
X138087498Y-119600000I249998J0D01*
G01*
X138912502Y-119600000D01*
G75*
G02*
X139162500Y-119849998I0J-249998D01*
G01*
G37*
G36*
G01*
X142287500Y-119849998D02*
X142287500Y-121150002D01*
G75*
G02*
X142037502Y-121400000I-249998J0D01*
G01*
X141212498Y-121400000D01*
G75*
G02*
X140962500Y-121150002I0J249998D01*
G01*
X140962500Y-119849998D01*
G75*
G02*
X141212498Y-119600000I249998J0D01*
G01*
X142037502Y-119600000D01*
G75*
G02*
X142287500Y-119849998I0J-249998D01*
G01*
G37*
G36*
G01*
X129162500Y-119849998D02*
X129162500Y-121150002D01*
G75*
G02*
X128912502Y-121400000I-249998J0D01*
G01*
X128087498Y-121400000D01*
G75*
G02*
X127837500Y-121150002I0J249998D01*
G01*
X127837500Y-119849998D01*
G75*
G02*
X128087498Y-119600000I249998J0D01*
G01*
X128912502Y-119600000D01*
G75*
G02*
X129162500Y-119849998I0J-249998D01*
G01*
G37*
G36*
G01*
X132287500Y-119849998D02*
X132287500Y-121150002D01*
G75*
G02*
X132037502Y-121400000I-249998J0D01*
G01*
X131212498Y-121400000D01*
G75*
G02*
X130962500Y-121150002I0J249998D01*
G01*
X130962500Y-119849998D01*
G75*
G02*
X131212498Y-119600000I249998J0D01*
G01*
X132037502Y-119600000D01*
G75*
G02*
X132287500Y-119849998I0J-249998D01*
G01*
G37*
G36*
G01*
X119162500Y-119849998D02*
X119162500Y-121150002D01*
G75*
G02*
X118912502Y-121400000I-249998J0D01*
G01*
X118087498Y-121400000D01*
G75*
G02*
X117837500Y-121150002I0J249998D01*
G01*
X117837500Y-119849998D01*
G75*
G02*
X118087498Y-119600000I249998J0D01*
G01*
X118912502Y-119600000D01*
G75*
G02*
X119162500Y-119849998I0J-249998D01*
G01*
G37*
G36*
G01*
X122287500Y-119849998D02*
X122287500Y-121150002D01*
G75*
G02*
X122037502Y-121400000I-249998J0D01*
G01*
X121212498Y-121400000D01*
G75*
G02*
X120962500Y-121150002I0J249998D01*
G01*
X120962500Y-119849998D01*
G75*
G02*
X121212498Y-119600000I249998J0D01*
G01*
X122037502Y-119600000D01*
G75*
G02*
X122287500Y-119849998I0J-249998D01*
G01*
G37*
G36*
G01*
X109162500Y-119849998D02*
X109162500Y-121150002D01*
G75*
G02*
X108912502Y-121400000I-249998J0D01*
G01*
X108087498Y-121400000D01*
G75*
G02*
X107837500Y-121150002I0J249998D01*
G01*
X107837500Y-119849998D01*
G75*
G02*
X108087498Y-119600000I249998J0D01*
G01*
X108912502Y-119600000D01*
G75*
G02*
X109162500Y-119849998I0J-249998D01*
G01*
G37*
G36*
G01*
X112287500Y-119849998D02*
X112287500Y-121150002D01*
G75*
G02*
X112037502Y-121400000I-249998J0D01*
G01*
X111212498Y-121400000D01*
G75*
G02*
X110962500Y-121150002I0J249998D01*
G01*
X110962500Y-119849998D01*
G75*
G02*
X111212498Y-119600000I249998J0D01*
G01*
X112037502Y-119600000D01*
G75*
G02*
X112287500Y-119849998I0J-249998D01*
G01*
G37*
X188500000Y-124000000D03*
X178500000Y-124000000D03*
X168500000Y-124000000D03*
X158500000Y-124000000D03*
X148500000Y-124000000D03*
X138500000Y-124000000D03*
X128500000Y-124000000D03*
X118500000Y-124000000D03*
X108500000Y-124000000D03*
D10*
X101000000Y-65250000D03*
X101000000Y-66750000D03*
X101750000Y-65250000D03*
X100250000Y-65250000D03*
X100250000Y-66750000D03*
X101750000Y-66750000D03*
X100250000Y-126750000D03*
X101750000Y-126750000D03*
X101750000Y-128250000D03*
X100250000Y-128250000D03*
X101000000Y-126750000D03*
X101000000Y-128250000D03*
D11*
X98500000Y-124000000D03*
X103500000Y-124000000D03*
X98500000Y-69500000D03*
X103500000Y-69500000D03*
G36*
G01*
X102287500Y-119849998D02*
X102287500Y-121150002D01*
G75*
G02*
X102037502Y-121400000I-249998J0D01*
G01*
X101212498Y-121400000D01*
G75*
G02*
X100962500Y-121150002I0J249998D01*
G01*
X100962500Y-119849998D01*
G75*
G02*
X101212498Y-119600000I249998J0D01*
G01*
X102037502Y-119600000D01*
G75*
G02*
X102287500Y-119849998I0J-249998D01*
G01*
G37*
G36*
G01*
X99162500Y-119849998D02*
X99162500Y-121150002D01*
G75*
G02*
X98912502Y-121400000I-249998J0D01*
G01*
X98087498Y-121400000D01*
G75*
G02*
X97837500Y-121150002I0J249998D01*
G01*
X97837500Y-119849998D01*
G75*
G02*
X98087498Y-119600000I249998J0D01*
G01*
X98912502Y-119600000D01*
G75*
G02*
X99162500Y-119849998I0J-249998D01*
G01*
G37*
G36*
G01*
X101650002Y-73600000D02*
X100349998Y-73600000D01*
G75*
G02*
X100100000Y-73350002I0J249998D01*
G01*
X100100000Y-72524998D01*
G75*
G02*
X100349998Y-72275000I249998J0D01*
G01*
X101650002Y-72275000D01*
G75*
G02*
X101900000Y-72524998I0J-249998D01*
G01*
X101900000Y-73350002D01*
G75*
G02*
X101650002Y-73600000I-249998J0D01*
G01*
G37*
G36*
G01*
X101650002Y-76725000D02*
X100349998Y-76725000D01*
G75*
G02*
X100100000Y-76475002I0J249998D01*
G01*
X100100000Y-75649998D01*
G75*
G02*
X100349998Y-75400000I249998J0D01*
G01*
X101650002Y-75400000D01*
G75*
G02*
X101900000Y-75649998I0J-249998D01*
G01*
X101900000Y-76475002D01*
G75*
G02*
X101650002Y-76725000I-249998J0D01*
G01*
G37*
G36*
G01*
X97874999Y-75400000D02*
X99125001Y-75400000D01*
G75*
G02*
X99375000Y-75649999I0J-249999D01*
G01*
X99375000Y-76450001D01*
G75*
G02*
X99125001Y-76700000I-249999J0D01*
G01*
X97874999Y-76700000D01*
G75*
G02*
X97625000Y-76450001I0J249999D01*
G01*
X97625000Y-75649999D01*
G75*
G02*
X97874999Y-75400000I249999J0D01*
G01*
G37*
G36*
G01*
X97874999Y-72300000D02*
X99125001Y-72300000D01*
G75*
G02*
X99375000Y-72549999I0J-249999D01*
G01*
X99375000Y-73350001D01*
G75*
G02*
X99125001Y-73600000I-249999J0D01*
G01*
X97874999Y-73600000D01*
G75*
G02*
X97625000Y-73350001I0J249999D01*
G01*
X97625000Y-72549999D01*
G75*
G02*
X97874999Y-72300000I249999J0D01*
G01*
G37*
G36*
G01*
X102874999Y-72300000D02*
X104125001Y-72300000D01*
G75*
G02*
X104375000Y-72549999I0J-249999D01*
G01*
X104375000Y-73350001D01*
G75*
G02*
X104125001Y-73600000I-249999J0D01*
G01*
X102874999Y-73600000D01*
G75*
G02*
X102625000Y-73350001I0J249999D01*
G01*
X102625000Y-72549999D01*
G75*
G02*
X102874999Y-72300000I249999J0D01*
G01*
G37*
G36*
G01*
X102874999Y-75400000D02*
X104125001Y-75400000D01*
G75*
G02*
X104375000Y-75649999I0J-249999D01*
G01*
X104375000Y-76450001D01*
G75*
G02*
X104125001Y-76700000I-249999J0D01*
G01*
X102874999Y-76700000D01*
G75*
G02*
X102625000Y-76450001I0J249999D01*
G01*
X102625000Y-75649999D01*
G75*
G02*
X102874999Y-75400000I249999J0D01*
G01*
G37*
G36*
G01*
X101550000Y-118700000D02*
X100450000Y-118700000D01*
G75*
G02*
X100200000Y-118450000I0J250000D01*
G01*
X100200000Y-115950000D01*
G75*
G02*
X100450000Y-115700000I250000J0D01*
G01*
X101550000Y-115700000D01*
G75*
G02*
X101800000Y-115950000I0J-250000D01*
G01*
X101800000Y-118450000D01*
G75*
G02*
X101550000Y-118700000I-250000J0D01*
G01*
G37*
G36*
G01*
X101550000Y-114300000D02*
X100450000Y-114300000D01*
G75*
G02*
X100200000Y-114050000I0J250000D01*
G01*
X100200000Y-111550000D01*
G75*
G02*
X100450000Y-111300000I250000J0D01*
G01*
X101550000Y-111300000D01*
G75*
G02*
X101800000Y-111550000I0J-250000D01*
G01*
X101800000Y-114050000D01*
G75*
G02*
X101550000Y-114300000I-250000J0D01*
G01*
G37*
G36*
G01*
X101550000Y-106300000D02*
X100450000Y-106300000D01*
G75*
G02*
X100200000Y-106050000I0J250000D01*
G01*
X100200000Y-103550000D01*
G75*
G02*
X100450000Y-103300000I250000J0D01*
G01*
X101550000Y-103300000D01*
G75*
G02*
X101800000Y-103550000I0J-250000D01*
G01*
X101800000Y-106050000D01*
G75*
G02*
X101550000Y-106300000I-250000J0D01*
G01*
G37*
G36*
G01*
X101550000Y-110700000D02*
X100450000Y-110700000D01*
G75*
G02*
X100200000Y-110450000I0J250000D01*
G01*
X100200000Y-107950000D01*
G75*
G02*
X100450000Y-107700000I250000J0D01*
G01*
X101550000Y-107700000D01*
G75*
G02*
X101800000Y-107950000I0J-250000D01*
G01*
X101800000Y-110450000D01*
G75*
G02*
X101550000Y-110700000I-250000J0D01*
G01*
G37*
G36*
G01*
X100450000Y-77800000D02*
X101550000Y-77800000D01*
G75*
G02*
X101800000Y-78050000I0J-250000D01*
G01*
X101800000Y-80550000D01*
G75*
G02*
X101550000Y-80800000I-250000J0D01*
G01*
X100450000Y-80800000D01*
G75*
G02*
X100200000Y-80550000I0J250000D01*
G01*
X100200000Y-78050000D01*
G75*
G02*
X100450000Y-77800000I250000J0D01*
G01*
G37*
G36*
G01*
X100450000Y-82200000D02*
X101550000Y-82200000D01*
G75*
G02*
X101800000Y-82450000I0J-250000D01*
G01*
X101800000Y-84950000D01*
G75*
G02*
X101550000Y-85200000I-250000J0D01*
G01*
X100450000Y-85200000D01*
G75*
G02*
X100200000Y-84950000I0J250000D01*
G01*
X100200000Y-82450000D01*
G75*
G02*
X100450000Y-82200000I250000J0D01*
G01*
G37*
G36*
G01*
X100450000Y-90700000D02*
X101550000Y-90700000D01*
G75*
G02*
X101800000Y-90950000I0J-250000D01*
G01*
X101800000Y-93450000D01*
G75*
G02*
X101550000Y-93700000I-250000J0D01*
G01*
X100450000Y-93700000D01*
G75*
G02*
X100200000Y-93450000I0J250000D01*
G01*
X100200000Y-90950000D01*
G75*
G02*
X100450000Y-90700000I250000J0D01*
G01*
G37*
G36*
G01*
X100450000Y-86300000D02*
X101550000Y-86300000D01*
G75*
G02*
X101800000Y-86550000I0J-250000D01*
G01*
X101800000Y-89050000D01*
G75*
G02*
X101550000Y-89300000I-250000J0D01*
G01*
X100450000Y-89300000D01*
G75*
G02*
X100200000Y-89050000I0J250000D01*
G01*
X100200000Y-86550000D01*
G75*
G02*
X100450000Y-86300000I250000J0D01*
G01*
G37*
G36*
G01*
X100450000Y-94800000D02*
X101550000Y-94800000D01*
G75*
G02*
X101800000Y-95050000I0J-250000D01*
G01*
X101800000Y-97550000D01*
G75*
G02*
X101550000Y-97800000I-250000J0D01*
G01*
X100450000Y-97800000D01*
G75*
G02*
X100200000Y-97550000I0J250000D01*
G01*
X100200000Y-95050000D01*
G75*
G02*
X100450000Y-94800000I250000J0D01*
G01*
G37*
G36*
G01*
X100450000Y-99200000D02*
X101550000Y-99200000D01*
G75*
G02*
X101800000Y-99450000I0J-250000D01*
G01*
X101800000Y-101950000D01*
G75*
G02*
X101550000Y-102200000I-250000J0D01*
G01*
X100450000Y-102200000D01*
G75*
G02*
X100200000Y-101950000I0J250000D01*
G01*
X100200000Y-99450000D01*
G75*
G02*
X100450000Y-99200000I250000J0D01*
G01*
G37*
M02*
