%FSLAX45Y45*%
G04 Gerber Fmt 4.5, Leading zero omitted, Abs format (unit mm)*
G04 Created by KiCad (PCBNEW (5.1.12)-1) date 2021-12-02 19:01:33*
%MOMM*%
%LPD*%
G01*
G04 APERTURE LIST*
%TA.AperFunction,Profile*%
%ADD10C,0.050000*%
%TD*%
%ADD11C,0.200000*%
%ADD12C,0.300000*%
G04 APERTURE END LIST*
D10*
X17900000Y-12850000D02*
X17300000Y-12850000D01*
X18900000Y-12850000D02*
X18300000Y-12850000D01*
X16300000Y-12850000D02*
X16900000Y-12850000D01*
X15300000Y-12850000D02*
X15900000Y-12850000D01*
X14300000Y-12850000D02*
X14900000Y-12850000D01*
X13300000Y-12850000D02*
X13900000Y-12850000D01*
X12300000Y-12850000D02*
X12900000Y-12850000D01*
X11300000Y-12850000D02*
X11900000Y-12850000D01*
X10300000Y-12850000D02*
X10900000Y-12850000D01*
X9700000Y-12850000D02*
X9900000Y-12850000D01*
X9700000Y-13650000D02*
X9700000Y-12850000D01*
X19500000Y-13650000D02*
X9700000Y-13650000D01*
X19500000Y-12850000D02*
X19500000Y-13650000D01*
X19300000Y-12850000D02*
X19500000Y-12850000D01*
X10900000Y-6500000D02*
X10300000Y-6500000D01*
X11900000Y-6500000D02*
X11300000Y-6500000D01*
X12900000Y-6500000D02*
X12300000Y-6500000D01*
X13900000Y-6500000D02*
X13300000Y-6500000D01*
X14900000Y-6500000D02*
X14300000Y-6500000D01*
X15900000Y-6500000D02*
X15300000Y-6500000D01*
X16900000Y-6500000D02*
X16300000Y-6500000D01*
X17900000Y-6500000D02*
X17300000Y-6500000D01*
X18900000Y-6500000D02*
X18300000Y-6500000D01*
X19500000Y-6500000D02*
X19300000Y-6500000D01*
X19500000Y-5700000D02*
X19500000Y-6500000D01*
X9700000Y-5700000D02*
X19500000Y-5700000D01*
X9700000Y-6500000D02*
X9700000Y-5700000D01*
X9900000Y-6500000D02*
X9700000Y-6500000D01*
X18900000Y-6700000D02*
X18700000Y-6700000D01*
X17900000Y-6700000D02*
X17700000Y-6700000D01*
X16900000Y-6700000D02*
X16700000Y-6700000D01*
X15900000Y-6700000D02*
X15700000Y-6700000D01*
X14900000Y-6700000D02*
X14700000Y-6700000D01*
X13900000Y-6700000D02*
X13700000Y-6700000D01*
X12900000Y-6700000D02*
X12700000Y-6700000D01*
X11900000Y-6700000D02*
X11700000Y-6700000D01*
X10900000Y-6700000D02*
X10700000Y-6700000D01*
X19300000Y-6700000D02*
G75*
G02*
X19300000Y-6500000I0J100000D01*
G01*
X18300000Y-6700000D02*
G75*
G02*
X18300000Y-6500000I0J100000D01*
G01*
X17300000Y-6700000D02*
G75*
G02*
X17300000Y-6500000I0J100000D01*
G01*
X16300000Y-6700000D02*
G75*
G02*
X16300000Y-6500000I0J100000D01*
G01*
X15300000Y-6700000D02*
G75*
G02*
X15300000Y-6500000I0J100000D01*
G01*
X14300000Y-6700000D02*
G75*
G02*
X14300000Y-6500000I0J100000D01*
G01*
X13300000Y-6700000D02*
G75*
G02*
X13300000Y-6500000I0J100000D01*
G01*
X12300000Y-6700000D02*
G75*
G02*
X12300000Y-6500000I0J100000D01*
G01*
X11300000Y-6700000D02*
G75*
G02*
X11300000Y-6500000I0J100000D01*
G01*
X18900000Y-12650000D02*
G75*
G02*
X18900000Y-12850000I0J-100000D01*
G01*
X17900000Y-12650000D02*
G75*
G02*
X17900000Y-12850000I0J-100000D01*
G01*
X16900000Y-12650000D02*
G75*
G02*
X16900000Y-12850000I0J-100000D01*
G01*
X15900000Y-12650000D02*
G75*
G02*
X15900000Y-12850000I0J-100000D01*
G01*
X14900000Y-12650000D02*
G75*
G02*
X14900000Y-12850000I0J-100000D01*
G01*
X13900000Y-12650000D02*
G75*
G02*
X13900000Y-12850000I0J-100000D01*
G01*
X12900000Y-12650000D02*
G75*
G02*
X12900000Y-12850000I0J-100000D01*
G01*
X11900000Y-12650000D02*
G75*
G02*
X11900000Y-12850000I0J-100000D01*
G01*
X10900000Y-12650000D02*
G75*
G02*
X10900000Y-12850000I0J-100000D01*
G01*
X19300000Y-12850000D02*
G75*
G02*
X19300000Y-12650000I0J100000D01*
G01*
X18300000Y-12850000D02*
G75*
G02*
X18300000Y-12650000I0J100000D01*
G01*
X17300000Y-12850000D02*
G75*
G02*
X17300000Y-12650000I0J100000D01*
G01*
X16300000Y-12850000D02*
G75*
G02*
X16300000Y-12650000I0J100000D01*
G01*
X15300000Y-12850000D02*
G75*
G02*
X15300000Y-12650000I0J100000D01*
G01*
X14300000Y-12850000D02*
G75*
G02*
X14300000Y-12650000I0J100000D01*
G01*
X13300000Y-12850000D02*
G75*
G02*
X13300000Y-12650000I0J100000D01*
G01*
X12300000Y-12850000D02*
G75*
G02*
X12300000Y-12650000I0J100000D01*
G01*
X11300000Y-12850000D02*
G75*
G02*
X11300000Y-12650000I0J100000D01*
G01*
X19500000Y-6700000D02*
X19300000Y-6700000D01*
X18500000Y-6700000D02*
X18300000Y-6700000D01*
X17500000Y-6700000D02*
X17300000Y-6700000D01*
X16500000Y-6700000D02*
X16300000Y-6700000D01*
X15500000Y-6700000D02*
X15300000Y-6700000D01*
X14500000Y-6700000D02*
X14300000Y-6700000D01*
X13500000Y-6700000D02*
X13300000Y-6700000D01*
X12500000Y-6700000D02*
X12300000Y-6700000D01*
X11500000Y-6700000D02*
X11300000Y-6700000D01*
X18900000Y-6500000D02*
G75*
G02*
X18900000Y-6700000I0J-100000D01*
G01*
X17900000Y-6500000D02*
G75*
G02*
X17900000Y-6700000I0J-100000D01*
G01*
X16900000Y-6500000D02*
G75*
G02*
X16900000Y-6700000I0J-100000D01*
G01*
X15900000Y-6500000D02*
G75*
G02*
X15900000Y-6700000I0J-100000D01*
G01*
X14900000Y-6500000D02*
G75*
G02*
X14900000Y-6700000I0J-100000D01*
G01*
X13900000Y-6500000D02*
G75*
G02*
X13900000Y-6700000I0J-100000D01*
G01*
X12900000Y-6500000D02*
G75*
G02*
X12900000Y-6700000I0J-100000D01*
G01*
X11900000Y-6500000D02*
G75*
G02*
X11900000Y-6700000I0J-100000D01*
G01*
X10900000Y-6500000D02*
G75*
G02*
X10900000Y-6700000I0J-100000D01*
G01*
X18900000Y-12650000D02*
X18700000Y-12650000D01*
X17900000Y-12650000D02*
X17700000Y-12650000D01*
X16900000Y-12650000D02*
X16700000Y-12650000D01*
X15900000Y-12650000D02*
X15700000Y-12650000D01*
X14900000Y-12650000D02*
X14700000Y-12650000D01*
X13900000Y-12650000D02*
X13700000Y-12650000D01*
X12900000Y-12650000D02*
X12700000Y-12650000D01*
X11900000Y-12650000D02*
X11700000Y-12650000D01*
X10900000Y-12650000D02*
X10700000Y-12650000D01*
X19500000Y-12650000D02*
X19300000Y-12650000D01*
X18500000Y-12650000D02*
X18300000Y-12650000D01*
X17500000Y-12650000D02*
X17300000Y-12650000D01*
X16500000Y-12650000D02*
X16300000Y-12650000D01*
X15500000Y-12650000D02*
X15300000Y-12650000D01*
X14500000Y-12650000D02*
X14300000Y-12650000D01*
X13500000Y-12650000D02*
X13300000Y-12650000D01*
X12500000Y-12650000D02*
X12300000Y-12650000D01*
X11500000Y-12650000D02*
X11300000Y-12650000D01*
X18700000Y-12650000D02*
X18700000Y-6700000D01*
X17700000Y-12650000D02*
X17700000Y-6700000D01*
X16700000Y-12650000D02*
X16700000Y-6700000D01*
X15700000Y-12650000D02*
X15700000Y-6700000D01*
X14700000Y-12650000D02*
X14700000Y-6700000D01*
X13700000Y-12650000D02*
X13700000Y-6700000D01*
X12700000Y-12650000D02*
X12700000Y-6700000D01*
X11700000Y-12650000D02*
X11700000Y-6700000D01*
X10700000Y-12650000D02*
X10700000Y-6700000D01*
X19500000Y-12650000D02*
X19500000Y-6700000D01*
X18500000Y-12650000D02*
X18500000Y-6700000D01*
X17500000Y-12650000D02*
X17500000Y-6700000D01*
X16500000Y-12650000D02*
X16500000Y-6700000D01*
X15500000Y-12650000D02*
X15500000Y-6700000D01*
X14500000Y-12650000D02*
X14500000Y-6700000D01*
X13500000Y-12650000D02*
X13500000Y-6700000D01*
X12500000Y-12650000D02*
X12500000Y-6700000D01*
X11500000Y-12650000D02*
X11500000Y-6700000D01*
X9900000Y-6700000D02*
X9700000Y-6700000D01*
X10500000Y-6700000D02*
X10300000Y-6700000D01*
X10300000Y-6700000D02*
G75*
G02*
X10300000Y-6500000I0J100000D01*
G01*
X9900000Y-6500000D02*
G75*
G02*
X9900000Y-6700000I0J-100000D01*
G01*
X9900000Y-12650000D02*
G75*
G02*
X9900000Y-12850000I0J-100000D01*
G01*
X10300000Y-12850000D02*
G75*
G02*
X10300000Y-12650000I0J100000D01*
G01*
X9900000Y-12650000D02*
X9700000Y-12650000D01*
X10500000Y-12650000D02*
X10300000Y-12650000D01*
X10500000Y-12650000D02*
X10500000Y-6700000D01*
X9700000Y-12650000D02*
X9700000Y-6700000D01*
D11*
X9830000Y-7585000D02*
X9870000Y-7625000D01*
X9870000Y-7585000D02*
X9830000Y-7625000D01*
X9830000Y-12480000D02*
X9870000Y-12520000D01*
X9870000Y-12480000D02*
X9830000Y-12520000D01*
X9880000Y-11780000D02*
X9920000Y-11820000D01*
X9920000Y-11780000D02*
X9880000Y-11820000D01*
X9930000Y-9835000D02*
X9970000Y-9875000D01*
X9970000Y-9835000D02*
X9930000Y-9875000D01*
X9930000Y-10680000D02*
X9970000Y-10720000D01*
X9970000Y-10680000D02*
X9930000Y-10720000D01*
X9930000Y-11280000D02*
X9970000Y-11320000D01*
X9970000Y-11280000D02*
X9930000Y-11320000D01*
X10030000Y-11780000D02*
X10070000Y-11820000D01*
X10070000Y-11780000D02*
X10030000Y-11820000D01*
X10080000Y-7830000D02*
X10120000Y-7870000D01*
X10120000Y-7830000D02*
X10080000Y-7870000D01*
X10080000Y-8355000D02*
X10120000Y-8395000D01*
X10120000Y-8355000D02*
X10080000Y-8395000D01*
X10230000Y-9205000D02*
X10270000Y-9245000D01*
X10270000Y-9205000D02*
X10230000Y-9245000D01*
X10230000Y-9695000D02*
X10270000Y-9735000D01*
X10270000Y-9695000D02*
X10230000Y-9735000D01*
X10230000Y-10255000D02*
X10270000Y-10295000D01*
X10270000Y-10255000D02*
X10230000Y-10295000D01*
X10320000Y-10680000D02*
X10360000Y-10720000D01*
X10360000Y-10680000D02*
X10320000Y-10720000D01*
X10330000Y-7580000D02*
X10370000Y-7620000D01*
X10370000Y-7580000D02*
X10330000Y-7620000D01*
X10380000Y-9755000D02*
X10420000Y-9795000D01*
X10420000Y-9755000D02*
X10380000Y-9795000D01*
X10380000Y-10530000D02*
X10420000Y-10570000D01*
X10420000Y-10530000D02*
X10380000Y-10570000D01*
X10380000Y-11130000D02*
X10420000Y-11170000D01*
X10420000Y-11130000D02*
X10380000Y-11170000D01*
X10380000Y-11705000D02*
X10420000Y-11745000D01*
X10420000Y-11705000D02*
X10380000Y-11745000D01*
X10416000Y-7717000D02*
X10456000Y-7757000D01*
X10456000Y-7717000D02*
X10416000Y-7757000D01*
X10416000Y-8854000D02*
X10456000Y-8894000D01*
X10456000Y-8854000D02*
X10416000Y-8894000D01*
X10830000Y-7585000D02*
X10870000Y-7625000D01*
X10870000Y-7585000D02*
X10830000Y-7625000D01*
X10830000Y-12480000D02*
X10870000Y-12520000D01*
X10870000Y-12480000D02*
X10830000Y-12520000D01*
X10880000Y-11780000D02*
X10920000Y-11820000D01*
X10920000Y-11780000D02*
X10880000Y-11820000D01*
X10930000Y-9835000D02*
X10970000Y-9875000D01*
X10970000Y-9835000D02*
X10930000Y-9875000D01*
X10930000Y-10680000D02*
X10970000Y-10720000D01*
X10970000Y-10680000D02*
X10930000Y-10720000D01*
X10930000Y-11280000D02*
X10970000Y-11320000D01*
X10970000Y-11280000D02*
X10930000Y-11320000D01*
X11030000Y-11780000D02*
X11070000Y-11820000D01*
X11070000Y-11780000D02*
X11030000Y-11820000D01*
X11080000Y-7830000D02*
X11120000Y-7870000D01*
X11120000Y-7830000D02*
X11080000Y-7870000D01*
X11080000Y-8355000D02*
X11120000Y-8395000D01*
X11120000Y-8355000D02*
X11080000Y-8395000D01*
X11230000Y-9205000D02*
X11270000Y-9245000D01*
X11270000Y-9205000D02*
X11230000Y-9245000D01*
X11230000Y-9695000D02*
X11270000Y-9735000D01*
X11270000Y-9695000D02*
X11230000Y-9735000D01*
X11230000Y-10255000D02*
X11270000Y-10295000D01*
X11270000Y-10255000D02*
X11230000Y-10295000D01*
X11320000Y-10680000D02*
X11360000Y-10720000D01*
X11360000Y-10680000D02*
X11320000Y-10720000D01*
X11330000Y-7580000D02*
X11370000Y-7620000D01*
X11370000Y-7580000D02*
X11330000Y-7620000D01*
X11380000Y-9755000D02*
X11420000Y-9795000D01*
X11420000Y-9755000D02*
X11380000Y-9795000D01*
X11380000Y-10530000D02*
X11420000Y-10570000D01*
X11420000Y-10530000D02*
X11380000Y-10570000D01*
X11380000Y-11130000D02*
X11420000Y-11170000D01*
X11420000Y-11130000D02*
X11380000Y-11170000D01*
X11380000Y-11705000D02*
X11420000Y-11745000D01*
X11420000Y-11705000D02*
X11380000Y-11745000D01*
X11416000Y-7717000D02*
X11456000Y-7757000D01*
X11456000Y-7717000D02*
X11416000Y-7757000D01*
X11416000Y-8854000D02*
X11456000Y-8894000D01*
X11456000Y-8854000D02*
X11416000Y-8894000D01*
X11830000Y-7585000D02*
X11870000Y-7625000D01*
X11870000Y-7585000D02*
X11830000Y-7625000D01*
X11830000Y-12480000D02*
X11870000Y-12520000D01*
X11870000Y-12480000D02*
X11830000Y-12520000D01*
X11880000Y-11780000D02*
X11920000Y-11820000D01*
X11920000Y-11780000D02*
X11880000Y-11820000D01*
X11930000Y-9835000D02*
X11970000Y-9875000D01*
X11970000Y-9835000D02*
X11930000Y-9875000D01*
X11930000Y-10680000D02*
X11970000Y-10720000D01*
X11970000Y-10680000D02*
X11930000Y-10720000D01*
X11930000Y-11280000D02*
X11970000Y-11320000D01*
X11970000Y-11280000D02*
X11930000Y-11320000D01*
X12030000Y-11780000D02*
X12070000Y-11820000D01*
X12070000Y-11780000D02*
X12030000Y-11820000D01*
X12080000Y-7830000D02*
X12120000Y-7870000D01*
X12120000Y-7830000D02*
X12080000Y-7870000D01*
X12080000Y-8355000D02*
X12120000Y-8395000D01*
X12120000Y-8355000D02*
X12080000Y-8395000D01*
X12230000Y-9205000D02*
X12270000Y-9245000D01*
X12270000Y-9205000D02*
X12230000Y-9245000D01*
X12230000Y-9695000D02*
X12270000Y-9735000D01*
X12270000Y-9695000D02*
X12230000Y-9735000D01*
X12230000Y-10255000D02*
X12270000Y-10295000D01*
X12270000Y-10255000D02*
X12230000Y-10295000D01*
X12320000Y-10680000D02*
X12360000Y-10720000D01*
X12360000Y-10680000D02*
X12320000Y-10720000D01*
X12330000Y-7580000D02*
X12370000Y-7620000D01*
X12370000Y-7580000D02*
X12330000Y-7620000D01*
X12380000Y-9755000D02*
X12420000Y-9795000D01*
X12420000Y-9755000D02*
X12380000Y-9795000D01*
X12380000Y-10530000D02*
X12420000Y-10570000D01*
X12420000Y-10530000D02*
X12380000Y-10570000D01*
X12380000Y-11130000D02*
X12420000Y-11170000D01*
X12420000Y-11130000D02*
X12380000Y-11170000D01*
X12380000Y-11705000D02*
X12420000Y-11745000D01*
X12420000Y-11705000D02*
X12380000Y-11745000D01*
X12416000Y-7717000D02*
X12456000Y-7757000D01*
X12456000Y-7717000D02*
X12416000Y-7757000D01*
X12416000Y-8854000D02*
X12456000Y-8894000D01*
X12456000Y-8854000D02*
X12416000Y-8894000D01*
X12830000Y-7585000D02*
X12870000Y-7625000D01*
X12870000Y-7585000D02*
X12830000Y-7625000D01*
X12830000Y-12480000D02*
X12870000Y-12520000D01*
X12870000Y-12480000D02*
X12830000Y-12520000D01*
X12880000Y-11780000D02*
X12920000Y-11820000D01*
X12920000Y-11780000D02*
X12880000Y-11820000D01*
X12930000Y-9835000D02*
X12970000Y-9875000D01*
X12970000Y-9835000D02*
X12930000Y-9875000D01*
X12930000Y-10680000D02*
X12970000Y-10720000D01*
X12970000Y-10680000D02*
X12930000Y-10720000D01*
X12930000Y-11280000D02*
X12970000Y-11320000D01*
X12970000Y-11280000D02*
X12930000Y-11320000D01*
X13030000Y-11780000D02*
X13070000Y-11820000D01*
X13070000Y-11780000D02*
X13030000Y-11820000D01*
X13080000Y-7830000D02*
X13120000Y-7870000D01*
X13120000Y-7830000D02*
X13080000Y-7870000D01*
X13080000Y-8355000D02*
X13120000Y-8395000D01*
X13120000Y-8355000D02*
X13080000Y-8395000D01*
X13230000Y-9205000D02*
X13270000Y-9245000D01*
X13270000Y-9205000D02*
X13230000Y-9245000D01*
X13230000Y-9695000D02*
X13270000Y-9735000D01*
X13270000Y-9695000D02*
X13230000Y-9735000D01*
X13230000Y-10255000D02*
X13270000Y-10295000D01*
X13270000Y-10255000D02*
X13230000Y-10295000D01*
X13320000Y-10680000D02*
X13360000Y-10720000D01*
X13360000Y-10680000D02*
X13320000Y-10720000D01*
X13330000Y-7580000D02*
X13370000Y-7620000D01*
X13370000Y-7580000D02*
X13330000Y-7620000D01*
X13380000Y-9755000D02*
X13420000Y-9795000D01*
X13420000Y-9755000D02*
X13380000Y-9795000D01*
X13380000Y-10530000D02*
X13420000Y-10570000D01*
X13420000Y-10530000D02*
X13380000Y-10570000D01*
X13380000Y-11130000D02*
X13420000Y-11170000D01*
X13420000Y-11130000D02*
X13380000Y-11170000D01*
X13380000Y-11705000D02*
X13420000Y-11745000D01*
X13420000Y-11705000D02*
X13380000Y-11745000D01*
X13416000Y-7717000D02*
X13456000Y-7757000D01*
X13456000Y-7717000D02*
X13416000Y-7757000D01*
X13416000Y-8854000D02*
X13456000Y-8894000D01*
X13456000Y-8854000D02*
X13416000Y-8894000D01*
X13830000Y-7585000D02*
X13870000Y-7625000D01*
X13870000Y-7585000D02*
X13830000Y-7625000D01*
X13830000Y-12480000D02*
X13870000Y-12520000D01*
X13870000Y-12480000D02*
X13830000Y-12520000D01*
X13880000Y-11780000D02*
X13920000Y-11820000D01*
X13920000Y-11780000D02*
X13880000Y-11820000D01*
X13930000Y-9835000D02*
X13970000Y-9875000D01*
X13970000Y-9835000D02*
X13930000Y-9875000D01*
X13930000Y-10680000D02*
X13970000Y-10720000D01*
X13970000Y-10680000D02*
X13930000Y-10720000D01*
X13930000Y-11280000D02*
X13970000Y-11320000D01*
X13970000Y-11280000D02*
X13930000Y-11320000D01*
X14030000Y-11780000D02*
X14070000Y-11820000D01*
X14070000Y-11780000D02*
X14030000Y-11820000D01*
X14080000Y-7830000D02*
X14120000Y-7870000D01*
X14120000Y-7830000D02*
X14080000Y-7870000D01*
X14080000Y-8355000D02*
X14120000Y-8395000D01*
X14120000Y-8355000D02*
X14080000Y-8395000D01*
X14230000Y-9205000D02*
X14270000Y-9245000D01*
X14270000Y-9205000D02*
X14230000Y-9245000D01*
X14230000Y-9695000D02*
X14270000Y-9735000D01*
X14270000Y-9695000D02*
X14230000Y-9735000D01*
X14230000Y-10255000D02*
X14270000Y-10295000D01*
X14270000Y-10255000D02*
X14230000Y-10295000D01*
X14320000Y-10680000D02*
X14360000Y-10720000D01*
X14360000Y-10680000D02*
X14320000Y-10720000D01*
X14330000Y-7580000D02*
X14370000Y-7620000D01*
X14370000Y-7580000D02*
X14330000Y-7620000D01*
X14380000Y-9755000D02*
X14420000Y-9795000D01*
X14420000Y-9755000D02*
X14380000Y-9795000D01*
X14380000Y-10530000D02*
X14420000Y-10570000D01*
X14420000Y-10530000D02*
X14380000Y-10570000D01*
X14380000Y-11130000D02*
X14420000Y-11170000D01*
X14420000Y-11130000D02*
X14380000Y-11170000D01*
X14380000Y-11705000D02*
X14420000Y-11745000D01*
X14420000Y-11705000D02*
X14380000Y-11745000D01*
X14416000Y-7717000D02*
X14456000Y-7757000D01*
X14456000Y-7717000D02*
X14416000Y-7757000D01*
X14416000Y-8854000D02*
X14456000Y-8894000D01*
X14456000Y-8854000D02*
X14416000Y-8894000D01*
X14830000Y-7585000D02*
X14870000Y-7625000D01*
X14870000Y-7585000D02*
X14830000Y-7625000D01*
X14830000Y-12480000D02*
X14870000Y-12520000D01*
X14870000Y-12480000D02*
X14830000Y-12520000D01*
X14880000Y-11780000D02*
X14920000Y-11820000D01*
X14920000Y-11780000D02*
X14880000Y-11820000D01*
X14930000Y-9835000D02*
X14970000Y-9875000D01*
X14970000Y-9835000D02*
X14930000Y-9875000D01*
X14930000Y-10680000D02*
X14970000Y-10720000D01*
X14970000Y-10680000D02*
X14930000Y-10720000D01*
X14930000Y-11280000D02*
X14970000Y-11320000D01*
X14970000Y-11280000D02*
X14930000Y-11320000D01*
X15030000Y-11780000D02*
X15070000Y-11820000D01*
X15070000Y-11780000D02*
X15030000Y-11820000D01*
X15080000Y-7830000D02*
X15120000Y-7870000D01*
X15120000Y-7830000D02*
X15080000Y-7870000D01*
X15080000Y-8355000D02*
X15120000Y-8395000D01*
X15120000Y-8355000D02*
X15080000Y-8395000D01*
X15230000Y-9205000D02*
X15270000Y-9245000D01*
X15270000Y-9205000D02*
X15230000Y-9245000D01*
X15230000Y-9695000D02*
X15270000Y-9735000D01*
X15270000Y-9695000D02*
X15230000Y-9735000D01*
X15230000Y-10255000D02*
X15270000Y-10295000D01*
X15270000Y-10255000D02*
X15230000Y-10295000D01*
X15320000Y-10680000D02*
X15360000Y-10720000D01*
X15360000Y-10680000D02*
X15320000Y-10720000D01*
X15330000Y-7580000D02*
X15370000Y-7620000D01*
X15370000Y-7580000D02*
X15330000Y-7620000D01*
X15380000Y-9755000D02*
X15420000Y-9795000D01*
X15420000Y-9755000D02*
X15380000Y-9795000D01*
X15380000Y-10530000D02*
X15420000Y-10570000D01*
X15420000Y-10530000D02*
X15380000Y-10570000D01*
X15380000Y-11130000D02*
X15420000Y-11170000D01*
X15420000Y-11130000D02*
X15380000Y-11170000D01*
X15380000Y-11705000D02*
X15420000Y-11745000D01*
X15420000Y-11705000D02*
X15380000Y-11745000D01*
X15416000Y-7717000D02*
X15456000Y-7757000D01*
X15456000Y-7717000D02*
X15416000Y-7757000D01*
X15416000Y-8854000D02*
X15456000Y-8894000D01*
X15456000Y-8854000D02*
X15416000Y-8894000D01*
X15830000Y-7585000D02*
X15870000Y-7625000D01*
X15870000Y-7585000D02*
X15830000Y-7625000D01*
X15830000Y-12480000D02*
X15870000Y-12520000D01*
X15870000Y-12480000D02*
X15830000Y-12520000D01*
X15880000Y-11780000D02*
X15920000Y-11820000D01*
X15920000Y-11780000D02*
X15880000Y-11820000D01*
X15930000Y-9835000D02*
X15970000Y-9875000D01*
X15970000Y-9835000D02*
X15930000Y-9875000D01*
X15930000Y-10680000D02*
X15970000Y-10720000D01*
X15970000Y-10680000D02*
X15930000Y-10720000D01*
X15930000Y-11280000D02*
X15970000Y-11320000D01*
X15970000Y-11280000D02*
X15930000Y-11320000D01*
X16030000Y-11780000D02*
X16070000Y-11820000D01*
X16070000Y-11780000D02*
X16030000Y-11820000D01*
X16080000Y-7830000D02*
X16120000Y-7870000D01*
X16120000Y-7830000D02*
X16080000Y-7870000D01*
X16080000Y-8355000D02*
X16120000Y-8395000D01*
X16120000Y-8355000D02*
X16080000Y-8395000D01*
X16230000Y-9205000D02*
X16270000Y-9245000D01*
X16270000Y-9205000D02*
X16230000Y-9245000D01*
X16230000Y-9695000D02*
X16270000Y-9735000D01*
X16270000Y-9695000D02*
X16230000Y-9735000D01*
X16230000Y-10255000D02*
X16270000Y-10295000D01*
X16270000Y-10255000D02*
X16230000Y-10295000D01*
X16320000Y-10680000D02*
X16360000Y-10720000D01*
X16360000Y-10680000D02*
X16320000Y-10720000D01*
X16330000Y-7580000D02*
X16370000Y-7620000D01*
X16370000Y-7580000D02*
X16330000Y-7620000D01*
X16380000Y-9755000D02*
X16420000Y-9795000D01*
X16420000Y-9755000D02*
X16380000Y-9795000D01*
X16380000Y-10530000D02*
X16420000Y-10570000D01*
X16420000Y-10530000D02*
X16380000Y-10570000D01*
X16380000Y-11130000D02*
X16420000Y-11170000D01*
X16420000Y-11130000D02*
X16380000Y-11170000D01*
X16380000Y-11705000D02*
X16420000Y-11745000D01*
X16420000Y-11705000D02*
X16380000Y-11745000D01*
X16416000Y-7717000D02*
X16456000Y-7757000D01*
X16456000Y-7717000D02*
X16416000Y-7757000D01*
X16416000Y-8854000D02*
X16456000Y-8894000D01*
X16456000Y-8854000D02*
X16416000Y-8894000D01*
X16830000Y-7585000D02*
X16870000Y-7625000D01*
X16870000Y-7585000D02*
X16830000Y-7625000D01*
X16830000Y-12480000D02*
X16870000Y-12520000D01*
X16870000Y-12480000D02*
X16830000Y-12520000D01*
X16880000Y-11780000D02*
X16920000Y-11820000D01*
X16920000Y-11780000D02*
X16880000Y-11820000D01*
X16930000Y-9835000D02*
X16970000Y-9875000D01*
X16970000Y-9835000D02*
X16930000Y-9875000D01*
X16930000Y-10680000D02*
X16970000Y-10720000D01*
X16970000Y-10680000D02*
X16930000Y-10720000D01*
X16930000Y-11280000D02*
X16970000Y-11320000D01*
X16970000Y-11280000D02*
X16930000Y-11320000D01*
X17030000Y-11780000D02*
X17070000Y-11820000D01*
X17070000Y-11780000D02*
X17030000Y-11820000D01*
X17080000Y-7830000D02*
X17120000Y-7870000D01*
X17120000Y-7830000D02*
X17080000Y-7870000D01*
X17080000Y-8355000D02*
X17120000Y-8395000D01*
X17120000Y-8355000D02*
X17080000Y-8395000D01*
X17230000Y-9205000D02*
X17270000Y-9245000D01*
X17270000Y-9205000D02*
X17230000Y-9245000D01*
X17230000Y-9695000D02*
X17270000Y-9735000D01*
X17270000Y-9695000D02*
X17230000Y-9735000D01*
X17230000Y-10255000D02*
X17270000Y-10295000D01*
X17270000Y-10255000D02*
X17230000Y-10295000D01*
X17320000Y-10680000D02*
X17360000Y-10720000D01*
X17360000Y-10680000D02*
X17320000Y-10720000D01*
X17330000Y-7580000D02*
X17370000Y-7620000D01*
X17370000Y-7580000D02*
X17330000Y-7620000D01*
X17380000Y-9755000D02*
X17420000Y-9795000D01*
X17420000Y-9755000D02*
X17380000Y-9795000D01*
X17380000Y-10530000D02*
X17420000Y-10570000D01*
X17420000Y-10530000D02*
X17380000Y-10570000D01*
X17380000Y-11130000D02*
X17420000Y-11170000D01*
X17420000Y-11130000D02*
X17380000Y-11170000D01*
X17380000Y-11705000D02*
X17420000Y-11745000D01*
X17420000Y-11705000D02*
X17380000Y-11745000D01*
X17416000Y-7717000D02*
X17456000Y-7757000D01*
X17456000Y-7717000D02*
X17416000Y-7757000D01*
X17416000Y-8854000D02*
X17456000Y-8894000D01*
X17456000Y-8854000D02*
X17416000Y-8894000D01*
X17830000Y-7585000D02*
X17870000Y-7625000D01*
X17870000Y-7585000D02*
X17830000Y-7625000D01*
X17830000Y-12480000D02*
X17870000Y-12520000D01*
X17870000Y-12480000D02*
X17830000Y-12520000D01*
X17880000Y-11780000D02*
X17920000Y-11820000D01*
X17920000Y-11780000D02*
X17880000Y-11820000D01*
X17930000Y-9835000D02*
X17970000Y-9875000D01*
X17970000Y-9835000D02*
X17930000Y-9875000D01*
X17930000Y-10680000D02*
X17970000Y-10720000D01*
X17970000Y-10680000D02*
X17930000Y-10720000D01*
X17930000Y-11280000D02*
X17970000Y-11320000D01*
X17970000Y-11280000D02*
X17930000Y-11320000D01*
X18030000Y-11780000D02*
X18070000Y-11820000D01*
X18070000Y-11780000D02*
X18030000Y-11820000D01*
X18080000Y-7830000D02*
X18120000Y-7870000D01*
X18120000Y-7830000D02*
X18080000Y-7870000D01*
X18080000Y-8355000D02*
X18120000Y-8395000D01*
X18120000Y-8355000D02*
X18080000Y-8395000D01*
X18230000Y-9205000D02*
X18270000Y-9245000D01*
X18270000Y-9205000D02*
X18230000Y-9245000D01*
X18230000Y-9695000D02*
X18270000Y-9735000D01*
X18270000Y-9695000D02*
X18230000Y-9735000D01*
X18230000Y-10255000D02*
X18270000Y-10295000D01*
X18270000Y-10255000D02*
X18230000Y-10295000D01*
X18320000Y-10680000D02*
X18360000Y-10720000D01*
X18360000Y-10680000D02*
X18320000Y-10720000D01*
X18330000Y-7580000D02*
X18370000Y-7620000D01*
X18370000Y-7580000D02*
X18330000Y-7620000D01*
X18380000Y-9755000D02*
X18420000Y-9795000D01*
X18420000Y-9755000D02*
X18380000Y-9795000D01*
X18380000Y-10530000D02*
X18420000Y-10570000D01*
X18420000Y-10530000D02*
X18380000Y-10570000D01*
X18380000Y-11130000D02*
X18420000Y-11170000D01*
X18420000Y-11130000D02*
X18380000Y-11170000D01*
X18380000Y-11705000D02*
X18420000Y-11745000D01*
X18420000Y-11705000D02*
X18380000Y-11745000D01*
X18416000Y-7717000D02*
X18456000Y-7757000D01*
X18456000Y-7717000D02*
X18416000Y-7757000D01*
X18416000Y-8854000D02*
X18456000Y-8894000D01*
X18456000Y-8854000D02*
X18416000Y-8894000D01*
X18830000Y-7585000D02*
X18870000Y-7625000D01*
X18870000Y-7585000D02*
X18830000Y-7625000D01*
X18830000Y-12480000D02*
X18870000Y-12520000D01*
X18870000Y-12480000D02*
X18830000Y-12520000D01*
X18880000Y-11780000D02*
X18920000Y-11820000D01*
X18920000Y-11780000D02*
X18880000Y-11820000D01*
X18930000Y-9835000D02*
X18970000Y-9875000D01*
X18970000Y-9835000D02*
X18930000Y-9875000D01*
X18930000Y-10680000D02*
X18970000Y-10720000D01*
X18970000Y-10680000D02*
X18930000Y-10720000D01*
X18930000Y-11280000D02*
X18970000Y-11320000D01*
X18970000Y-11280000D02*
X18930000Y-11320000D01*
X19030000Y-11780000D02*
X19070000Y-11820000D01*
X19070000Y-11780000D02*
X19030000Y-11820000D01*
X19080000Y-7830000D02*
X19120000Y-7870000D01*
X19120000Y-7830000D02*
X19080000Y-7870000D01*
X19080000Y-8355000D02*
X19120000Y-8395000D01*
X19120000Y-8355000D02*
X19080000Y-8395000D01*
X19230000Y-9205000D02*
X19270000Y-9245000D01*
X19270000Y-9205000D02*
X19230000Y-9245000D01*
X19230000Y-9695000D02*
X19270000Y-9735000D01*
X19270000Y-9695000D02*
X19230000Y-9735000D01*
X19230000Y-10255000D02*
X19270000Y-10295000D01*
X19270000Y-10255000D02*
X19230000Y-10295000D01*
X19320000Y-10680000D02*
X19360000Y-10720000D01*
X19360000Y-10680000D02*
X19320000Y-10720000D01*
X19330000Y-7580000D02*
X19370000Y-7620000D01*
X19370000Y-7580000D02*
X19330000Y-7620000D01*
X19380000Y-9755000D02*
X19420000Y-9795000D01*
X19420000Y-9755000D02*
X19380000Y-9795000D01*
X19380000Y-10530000D02*
X19420000Y-10570000D01*
X19420000Y-10530000D02*
X19380000Y-10570000D01*
X19380000Y-11130000D02*
X19420000Y-11170000D01*
X19420000Y-11130000D02*
X19380000Y-11170000D01*
X19380000Y-11705000D02*
X19420000Y-11745000D01*
X19420000Y-11705000D02*
X19380000Y-11745000D01*
X19416000Y-7717000D02*
X19456000Y-7757000D01*
X19456000Y-7717000D02*
X19416000Y-7757000D01*
X19416000Y-8854000D02*
X19456000Y-8894000D01*
X19456000Y-8854000D02*
X19416000Y-8894000D01*
D12*
X9983928Y-14118214D02*
X9983928Y-13818214D01*
X10055357Y-13818214D01*
X10098214Y-13832500D01*
X10126786Y-13861071D01*
X10141071Y-13889643D01*
X10155357Y-13946786D01*
X10155357Y-13989643D01*
X10141071Y-14046786D01*
X10126786Y-14075357D01*
X10098214Y-14103929D01*
X10055357Y-14118214D01*
X9983928Y-14118214D01*
X10283928Y-14118214D02*
X10283928Y-13918214D01*
X10283928Y-13975357D02*
X10298214Y-13946786D01*
X10312500Y-13932500D01*
X10341071Y-13918214D01*
X10369643Y-13918214D01*
X10469643Y-14118214D02*
X10469643Y-13918214D01*
X10469643Y-13818214D02*
X10455357Y-13832500D01*
X10469643Y-13846786D01*
X10483928Y-13832500D01*
X10469643Y-13818214D01*
X10469643Y-13846786D01*
X10655357Y-14118214D02*
X10626786Y-14103929D01*
X10612500Y-14075357D01*
X10612500Y-13818214D01*
X10812500Y-14118214D02*
X10783928Y-14103929D01*
X10769643Y-14075357D01*
X10769643Y-13818214D01*
X11155357Y-14118214D02*
X11155357Y-13818214D01*
X11255357Y-14032500D01*
X11355357Y-13818214D01*
X11355357Y-14118214D01*
X11626786Y-14118214D02*
X11626786Y-13961071D01*
X11612500Y-13932500D01*
X11583928Y-13918214D01*
X11526786Y-13918214D01*
X11498214Y-13932500D01*
X11626786Y-14103929D02*
X11598214Y-14118214D01*
X11526786Y-14118214D01*
X11498214Y-14103929D01*
X11483928Y-14075357D01*
X11483928Y-14046786D01*
X11498214Y-14018214D01*
X11526786Y-14003929D01*
X11598214Y-14003929D01*
X11626786Y-13989643D01*
X11769643Y-13918214D02*
X11769643Y-14218214D01*
X11769643Y-13932500D02*
X11798214Y-13918214D01*
X11855357Y-13918214D01*
X11883928Y-13932500D01*
X11898214Y-13946786D01*
X11912500Y-13975357D01*
X11912500Y-14061071D01*
X11898214Y-14089643D01*
X11883928Y-14103929D01*
X11855357Y-14118214D01*
X11798214Y-14118214D01*
X11769643Y-14103929D01*
X12041071Y-14089643D02*
X12055357Y-14103929D01*
X12041071Y-14118214D01*
X12026786Y-14103929D01*
X12041071Y-14089643D01*
X12041071Y-14118214D01*
X12041071Y-13932500D02*
X12055357Y-13946786D01*
X12041071Y-13961071D01*
X12026786Y-13946786D01*
X12041071Y-13932500D01*
X12041071Y-13961071D01*
X9657500Y-14592500D02*
X9697500Y-14632500D01*
X9697500Y-14592500D02*
X9657500Y-14632500D01*
X10041071Y-14448214D02*
X10069643Y-14448214D01*
X10098214Y-14462500D01*
X10112500Y-14476786D01*
X10126786Y-14505357D01*
X10141071Y-14562500D01*
X10141071Y-14633929D01*
X10126786Y-14691071D01*
X10112500Y-14719643D01*
X10098214Y-14733929D01*
X10069643Y-14748214D01*
X10041071Y-14748214D01*
X10012500Y-14733929D01*
X9998214Y-14719643D01*
X9983928Y-14691071D01*
X9969643Y-14633929D01*
X9969643Y-14562500D01*
X9983928Y-14505357D01*
X9998214Y-14476786D01*
X10012500Y-14462500D01*
X10041071Y-14448214D01*
X10269643Y-14719643D02*
X10283928Y-14733929D01*
X10269643Y-14748214D01*
X10255357Y-14733929D01*
X10269643Y-14719643D01*
X10269643Y-14748214D01*
X10541071Y-14548214D02*
X10541071Y-14748214D01*
X10469643Y-14433929D02*
X10398214Y-14648214D01*
X10583928Y-14648214D01*
X10755357Y-14448214D02*
X10783928Y-14448214D01*
X10812500Y-14462500D01*
X10826786Y-14476786D01*
X10841071Y-14505357D01*
X10855357Y-14562500D01*
X10855357Y-14633929D01*
X10841071Y-14691071D01*
X10826786Y-14719643D01*
X10812500Y-14733929D01*
X10783928Y-14748214D01*
X10755357Y-14748214D01*
X10726786Y-14733929D01*
X10712500Y-14719643D01*
X10698214Y-14691071D01*
X10683928Y-14633929D01*
X10683928Y-14562500D01*
X10698214Y-14505357D01*
X10712500Y-14476786D01*
X10726786Y-14462500D01*
X10755357Y-14448214D01*
X11041071Y-14448214D02*
X11069643Y-14448214D01*
X11098214Y-14462500D01*
X11112500Y-14476786D01*
X11126786Y-14505357D01*
X11141071Y-14562500D01*
X11141071Y-14633929D01*
X11126786Y-14691071D01*
X11112500Y-14719643D01*
X11098214Y-14733929D01*
X11069643Y-14748214D01*
X11041071Y-14748214D01*
X11012500Y-14733929D01*
X10998214Y-14719643D01*
X10983928Y-14691071D01*
X10969643Y-14633929D01*
X10969643Y-14562500D01*
X10983928Y-14505357D01*
X10998214Y-14476786D01*
X11012500Y-14462500D01*
X11041071Y-14448214D01*
X11269643Y-14748214D02*
X11269643Y-14548214D01*
X11269643Y-14576786D02*
X11283928Y-14562500D01*
X11312500Y-14548214D01*
X11355357Y-14548214D01*
X11383928Y-14562500D01*
X11398214Y-14591071D01*
X11398214Y-14748214D01*
X11398214Y-14591071D02*
X11412500Y-14562500D01*
X11441071Y-14548214D01*
X11483928Y-14548214D01*
X11512500Y-14562500D01*
X11526786Y-14591071D01*
X11526786Y-14748214D01*
X11669643Y-14748214D02*
X11669643Y-14548214D01*
X11669643Y-14576786D02*
X11683928Y-14562500D01*
X11712500Y-14548214D01*
X11755357Y-14548214D01*
X11783928Y-14562500D01*
X11798214Y-14591071D01*
X11798214Y-14748214D01*
X11798214Y-14591071D02*
X11812500Y-14562500D01*
X11841071Y-14548214D01*
X11883928Y-14548214D01*
X11912500Y-14562500D01*
X11926786Y-14591071D01*
X11926786Y-14748214D01*
X12512500Y-14433929D02*
X12255357Y-14819643D01*
X12898214Y-14448214D02*
X12926786Y-14448214D01*
X12955357Y-14462500D01*
X12969643Y-14476786D01*
X12983928Y-14505357D01*
X12998214Y-14562500D01*
X12998214Y-14633929D01*
X12983928Y-14691071D01*
X12969643Y-14719643D01*
X12955357Y-14733929D01*
X12926786Y-14748214D01*
X12898214Y-14748214D01*
X12869643Y-14733929D01*
X12855357Y-14719643D01*
X12841071Y-14691071D01*
X12826786Y-14633929D01*
X12826786Y-14562500D01*
X12841071Y-14505357D01*
X12855357Y-14476786D01*
X12869643Y-14462500D01*
X12898214Y-14448214D01*
X13126786Y-14719643D02*
X13141071Y-14733929D01*
X13126786Y-14748214D01*
X13112500Y-14733929D01*
X13126786Y-14719643D01*
X13126786Y-14748214D01*
X13326786Y-14448214D02*
X13355357Y-14448214D01*
X13383928Y-14462500D01*
X13398214Y-14476786D01*
X13412500Y-14505357D01*
X13426786Y-14562500D01*
X13426786Y-14633929D01*
X13412500Y-14691071D01*
X13398214Y-14719643D01*
X13383928Y-14733929D01*
X13355357Y-14748214D01*
X13326786Y-14748214D01*
X13298214Y-14733929D01*
X13283928Y-14719643D01*
X13269643Y-14691071D01*
X13255357Y-14633929D01*
X13255357Y-14562500D01*
X13269643Y-14505357D01*
X13283928Y-14476786D01*
X13298214Y-14462500D01*
X13326786Y-14448214D01*
X13712500Y-14748214D02*
X13541071Y-14748214D01*
X13626786Y-14748214D02*
X13626786Y-14448214D01*
X13598214Y-14491071D01*
X13569643Y-14519643D01*
X13541071Y-14533929D01*
X13983928Y-14448214D02*
X13841071Y-14448214D01*
X13826786Y-14591071D01*
X13841071Y-14576786D01*
X13869643Y-14562500D01*
X13941071Y-14562500D01*
X13969643Y-14576786D01*
X13983928Y-14591071D01*
X13998214Y-14619643D01*
X13998214Y-14691071D01*
X13983928Y-14719643D01*
X13969643Y-14733929D01*
X13941071Y-14748214D01*
X13869643Y-14748214D01*
X13841071Y-14733929D01*
X13826786Y-14719643D01*
X14098214Y-14448214D02*
X14298214Y-14448214D01*
X14169643Y-14748214D01*
X14398214Y-14448214D02*
X14398214Y-14505357D01*
X14512500Y-14448214D02*
X14512500Y-14505357D01*
X14955357Y-14862500D02*
X14941071Y-14848214D01*
X14912500Y-14805357D01*
X14898214Y-14776786D01*
X14883928Y-14733929D01*
X14869643Y-14662500D01*
X14869643Y-14605357D01*
X14883928Y-14533929D01*
X14898214Y-14491071D01*
X14912500Y-14462500D01*
X14941071Y-14419643D01*
X14955357Y-14405357D01*
X15055357Y-14476786D02*
X15069643Y-14462500D01*
X15098214Y-14448214D01*
X15169643Y-14448214D01*
X15198214Y-14462500D01*
X15212500Y-14476786D01*
X15226786Y-14505357D01*
X15226786Y-14533929D01*
X15212500Y-14576786D01*
X15041071Y-14748214D01*
X15226786Y-14748214D01*
X15412500Y-14448214D02*
X15441071Y-14448214D01*
X15469643Y-14462500D01*
X15483928Y-14476786D01*
X15498214Y-14505357D01*
X15512500Y-14562500D01*
X15512500Y-14633929D01*
X15498214Y-14691071D01*
X15483928Y-14719643D01*
X15469643Y-14733929D01*
X15441071Y-14748214D01*
X15412500Y-14748214D01*
X15383928Y-14733929D01*
X15369643Y-14719643D01*
X15355357Y-14691071D01*
X15341071Y-14633929D01*
X15341071Y-14562500D01*
X15355357Y-14505357D01*
X15369643Y-14476786D01*
X15383928Y-14462500D01*
X15412500Y-14448214D01*
X15698214Y-14448214D02*
X15726786Y-14448214D01*
X15755357Y-14462500D01*
X15769643Y-14476786D01*
X15783928Y-14505357D01*
X15798214Y-14562500D01*
X15798214Y-14633929D01*
X15783928Y-14691071D01*
X15769643Y-14719643D01*
X15755357Y-14733929D01*
X15726786Y-14748214D01*
X15698214Y-14748214D01*
X15669643Y-14733929D01*
X15655357Y-14719643D01*
X15641071Y-14691071D01*
X15626786Y-14633929D01*
X15626786Y-14562500D01*
X15641071Y-14505357D01*
X15655357Y-14476786D01*
X15669643Y-14462500D01*
X15698214Y-14448214D01*
X16155357Y-14748214D02*
X16155357Y-14448214D01*
X16283928Y-14748214D02*
X16283928Y-14591071D01*
X16269643Y-14562500D01*
X16241071Y-14548214D01*
X16198214Y-14548214D01*
X16169643Y-14562500D01*
X16155357Y-14576786D01*
X16469643Y-14748214D02*
X16441071Y-14733929D01*
X16426786Y-14719643D01*
X16412500Y-14691071D01*
X16412500Y-14605357D01*
X16426786Y-14576786D01*
X16441071Y-14562500D01*
X16469643Y-14548214D01*
X16512500Y-14548214D01*
X16541071Y-14562500D01*
X16555357Y-14576786D01*
X16569643Y-14605357D01*
X16569643Y-14691071D01*
X16555357Y-14719643D01*
X16541071Y-14733929D01*
X16512500Y-14748214D01*
X16469643Y-14748214D01*
X16741071Y-14748214D02*
X16712500Y-14733929D01*
X16698214Y-14705357D01*
X16698214Y-14448214D01*
X16969643Y-14733929D02*
X16941071Y-14748214D01*
X16883928Y-14748214D01*
X16855357Y-14733929D01*
X16841071Y-14705357D01*
X16841071Y-14591071D01*
X16855357Y-14562500D01*
X16883928Y-14548214D01*
X16941071Y-14548214D01*
X16969643Y-14562500D01*
X16983928Y-14591071D01*
X16983928Y-14619643D01*
X16841071Y-14648214D01*
X17098214Y-14733929D02*
X17126786Y-14748214D01*
X17183928Y-14748214D01*
X17212500Y-14733929D01*
X17226786Y-14705357D01*
X17226786Y-14691071D01*
X17212500Y-14662500D01*
X17183928Y-14648214D01*
X17141071Y-14648214D01*
X17112500Y-14633929D01*
X17098214Y-14605357D01*
X17098214Y-14591071D01*
X17112500Y-14562500D01*
X17141071Y-14548214D01*
X17183928Y-14548214D01*
X17212500Y-14562500D01*
X17326786Y-14862500D02*
X17341071Y-14848214D01*
X17369643Y-14805357D01*
X17383928Y-14776786D01*
X17398214Y-14733929D01*
X17412500Y-14662500D01*
X17412500Y-14605357D01*
X17398214Y-14533929D01*
X17383928Y-14491071D01*
X17369643Y-14462500D01*
X17341071Y-14419643D01*
X17326786Y-14405357D01*
M02*
